{
    "asset" : {
        "version" : "2.0",
        "generator" : "Khronos glTF Blender I/O v0.9.33"
    },
    "scene" : 0,
    "scenes" : [
        {
            "name" : "Scene",
            "nodes" : [
                0,
                1,
                2
            ]
        }
    ],
    "nodes" : [
        {
            "name" : "Cube.004",
            "mesh" : 0,
            "translation" : [
                0,
                0.2586264908313751,
                0
            ]
        },
        {
            "name" : "Cube.002",
            "mesh" : 1
        },
        {
            "name" : "Cube",
            "mesh" : 2
        }
    ],
    "meshes" : [
        {
            "name" : "Cube.012",
            "primitives" : [
                {
                    "attributes" : {
                        "POSITION" : 0,
                        "NORMAL" : 1
                    },
                    "indices" : 2
                }
            ]
        },
        {
            "name" : "Cube.010",
            "primitives" : [
                {
                    "attributes" : {
                        "POSITION" : 3,
                        "NORMAL" : 4
                    },
                    "indices" : 5
                }
            ]
        },
        {
            "name" : "Cube.008",
            "primitives" : [
                {
                    "attributes" : {
                        "POSITION" : 6,
                        "NORMAL" : 7
                    },
                    "indices" : 8
                }
            ]
        }
    ],
    "accessors" : [
        {
            "bufferView" : 0,
            "componentType" : 5126,
            "max" : [
                0.9747639894485474,
                0.7895398736000061,
                0.2518811821937561
            ],
            "count" : 108,
            "type" : "VEC3",
            "min" : [
                -0.9748241305351257,
                0.5492779016494751,
                0
            ]
        },
        {
            "bufferView" : 1,
            "componentType" : 5126,
            "type" : "VEC3",
            "count" : 108
        },
        {
            "bufferView" : 2,
            "componentType" : 5123,
            "type" : "SCALAR",
            "count" : 204
        },
        {
            "bufferView" : 3,
            "componentType" : 5126,
            "max" : [
                1,
                0.8072459101676941,
                0.7742491364479065
            ],
            "count" : 24,
            "type" : "VEC3",
            "min" : [
                -1,
                0.7645262479782104,
                0
            ]
        },
        {
            "bufferView" : 4,
            "componentType" : 5126,
            "type" : "VEC3",
            "count" : 24
        },
        {
            "bufferView" : 5,
            "componentType" : 5123,
            "type" : "SCALAR",
            "count" : 36
        },
        {
            "bufferView" : 6,
            "componentType" : 5126,
            "max" : [
                1,
                0.7619999647140503,
                0.7619999647140503
            ],
            "count" : 715,
            "type" : "VEC3",
            "min" : [
                -1,
                0,
                0
            ]
        },
        {
            "bufferView" : 7,
            "componentType" : 5126,
            "type" : "VEC3",
            "count" : 715
        },
        {
            "bufferView" : 8,
            "componentType" : 5123,
            "type" : "SCALAR",
            "count" : 1836
        }
    ],
    "bufferViews" : [
        {
            "byteLength" : 1296,
            "byteOffset" : 0,
            "buffer" : 0
        },
        {
            "byteLength" : 1296,
            "byteOffset" : 1296,
            "buffer" : 0
        },
        {
            "byteLength" : 408,
            "byteOffset" : 2592,
            "buffer" : 0
        },
        {
            "byteLength" : 288,
            "byteOffset" : 3000,
            "buffer" : 0
        },
        {
            "byteLength" : 288,
            "byteOffset" : 3288,
            "buffer" : 0
        },
        {
            "byteLength" : 72,
            "byteOffset" : 3576,
            "buffer" : 0
        },
        {
            "byteLength" : 8580,
            "byteOffset" : 3648,
            "buffer" : 0
        },
        {
            "byteLength" : 8580,
            "byteOffset" : 12228,
            "buffer" : 0
        },
        {
            "byteLength" : 3672,
            "byteOffset" : 20808,
            "buffer" : 0
        }
    ],
    "buffers" : [
        {
            "byteLength" : 24480,
            "uri" : "data:application/octet-stream;base64,"
        }
    ]
}
