<?xml version="1.0" encoding="utf-8"?>
<!-- Generator: Adobe Illustrator 24.0.1, SVG Export Plug-In . SVG Version: 6.00 Build 0)  -->
<svg version="1.1" id="Layer_1" xmlns="http://www.w3.org/2000/svg" xmlns:xlink="http://www.w3.org/1999/xlink" x="0px" y="0px"
	 viewBox="0 0 432 288" style="enable-background:new 0 0 432 288;" xml:space="preserve">
<style type="text/css">
	.st0{fill:none;stroke:#000000;stroke-miterlimit:10;}
</style>
<g>
	<line class="st0" x1="52.5" y1="49.5" x2="131.5" y2="97.5"/>
</g>
<line class="st0" x1="113.5" y1="253.5" x2="175.5" y2="183.5"/>
<line class="st0" x1="203.5" y1="116.5" x2="240.5" y2="73.5"/>
<line class="st0" x1="206.5" y1="42.5" x2="240.5" y2="73.5"/>
<line class="st0" x1="240.5" y1="73.5" x2="278.5" y2="43.5"/>
<line class="st0" x1="344.5" y1="239.5" x2="368.5" y2="256.5"/>
<line class="st0" x1="343.5" y1="169.5" x2="381.5" y2="167.5"/>
<line class="st0" x1="270.5" y1="176.5" x2="317.5" y2="141.5"/>
<circle class="st0" cx="132.5" cy="97.5" r="26"/>
<circle class="st0" cx="52.5" cy="49.5" r="26"/>
<circle class="st0" cx="344.5" cy="239.5" r="13"/>
<circle class="st0" cx="240.5" cy="73.5" r="13"/>
<circle class="st0" cx="270.5" cy="176.5" r="24"/>
<circle class="st0" cx="317.5" cy="141.5" r="17"/>
<circle class="st0" cx="207.5" cy="43.5" r="14"/>
<circle class="st0" cx="175.5" cy="183.5" r="26"/>
<circle class="st0" cx="113.5" cy="253.5" r="26"/>
<circle class="st0" cx="203.5" cy="116.5" r="26"/>
<circle class="st0" cx="368.5" cy="256.5" r="10"/>
<circle class="st0" cx="344.5" cy="169.5" r="12"/>
<circle class="st0" cx="381.5" cy="167.5" r="12"/>
<circle class="st0" cx="57.5" cy="210.5" r="13"/>
<circle class="st0" cx="95.5" cy="182.5" r="13"/>
<circle class="st0" cx="57.5" cy="157.5" r="10"/>
<g>
	<line class="st0" x1="57.5" y1="157.5" x2="95.5" y2="182.5"/>
</g>
<g>
	<line class="st0" x1="57.5" y1="210.5" x2="95.5" y2="182.5"/>
</g>
<circle class="st0" cx="131.83" cy="150.47" r="18.88"/>
<g>
	<line class="st0" x1="131.5" y1="150.5" x2="95.5" y2="182.5"/>
</g>
<line class="st0" x1="175.5" y1="183.5" x2="203.5" y2="116.5"/>
<line class="st0" x1="131.5" y1="97.5" x2="203.5" y2="116.5"/>
<line class="st0" x1="203.5" y1="116.5" x2="270.5" y2="176.5"/>
<line class="st0" x1="344.5" y1="239.5" x2="271.5" y2="176.5"/>
<line class="st0" x1="343.5" y1="169.5" x2="317.5" y2="141.5"/>
<line class="st0" x1="348.5" y1="196.5" x2="343.5" y2="169.5"/>
<circle class="st0" cx="348.25" cy="196.14" r="7.51"/>
<line class="st0" x1="326.5" y1="261.5" x2="344.5" y2="239.5"/>
<circle class="st0" cx="326.23" cy="261.19" r="7.51"/>
<circle class="st0" cx="279.15" cy="43.1" r="7.51"/>
<line class="st0" x1="240.5" y1="73.5" x2="271.5" y2="90.5"/>
<circle class="st0" cx="271.2" cy="90.1" r="7.51"/>
</svg>
