<svg id="f9bc641e-182f-4dc6-811d-203a01953d31" data-name="Layer 1" xmlns="http://www.w3.org/2000/svg" viewBox="0 0 128 128"><rect x="85.33" y="100.85" width="3.88" height="3.88" fill="#30ea2a"/><rect x="85.33" y="96.97" width="3.88" height="3.88" fill="#30ea2a"/><rect x="85.33" y="93.09" width="3.88" height="3.88" fill="#30ea2a"/><rect x="77.58" y="104.73" width="3.87" height="3.88" fill="#30ea2a"/><rect x="73.7" y="108.61" width="3.88" height="3.87" fill="#30ea2a"/><rect x="69.82" y="104.73" width="3.88" height="3.88" fill="#30ea2a"/><rect x="69.82" y="100.85" width="3.88" height="3.88" fill="#30ea2a"/><rect x="77.58" y="100.85" width="3.87" height="3.88" fill="#30ea2a"/><rect x="73.7" y="96.97" width="3.88" height="3.88" fill="#30ea2a"/><rect x="62.06" y="112.48" width="3.88" height="3.88" fill="#30ea2a"/><rect x="62.06" y="108.61" width="3.88" height="3.87" fill="#30ea2a"/><rect x="62.06" y="104.73" width="3.88" height="3.88" fill="#30ea2a"/><rect x="85.33" y="85.33" width="3.88" height="3.88" fill="#30ea2a"/><rect x="89.21" y="81.45" width="3.88" height="3.88" fill="#30ea2a"/><rect x="81.45" y="81.45" width="3.88" height="3.88" fill="#30ea2a"/><rect x="89.21" y="77.58" width="3.88" height="3.87" fill="#30ea2a"/><rect x="85.33" y="73.7" width="3.88" height="3.88" fill="#30ea2a"/><rect x="81.45" y="77.58" width="3.88" height="3.87" fill="#30ea2a"/><rect x="73.7" y="81.45" width="3.88" height="3.88" fill="#30ea2a"/><rect x="73.7" y="85.33" width="3.88" height="3.88" fill="#30ea2a"/><rect x="69.82" y="89.21" width="3.88" height="3.88" fill="#30ea2a"/><rect x="65.94" y="85.33" width="3.88" height="3.88" fill="#30ea2a"/><rect x="65.94" y="81.45" width="3.88" height="3.88" fill="#30ea2a"/><rect x="69.82" y="77.58" width="3.88" height="3.87" fill="#30ea2a"/><rect x="50.42" y="100.85" width="3.88" height="3.88" fill="#30ea2a"/><rect x="50.42" y="96.97" width="3.88" height="3.88" fill="#30ea2a"/><rect x="50.42" y="93.09" width="3.88" height="3.88" fill="#30ea2a"/><rect x="58.18" y="93.09" width="3.88" height="3.88" fill="#30ea2a"/><rect x="58.18" y="89.21" width="3.88" height="3.88" fill="#30ea2a"/><rect x="58.18" y="85.33" width="3.88" height="3.88" fill="#30ea2a"/><rect x="96.97" y="38.79" width="3.88" height="3.88" fill="#30ea2a"/><rect x="96.97" y="34.91" width="3.88" height="3.88" fill="#30ea2a"/><rect x="93.09" y="58.18" width="3.88" height="3.88" fill="#30ea2a"/><rect x="93.09" y="54.3" width="3.88" height="3.88" fill="#30ea2a"/><rect x="93.09" y="50.42" width="3.88" height="3.88" fill="#30ea2a"/><rect x="93.09" y="42.67" width="3.88" height="3.88" fill="#30ea2a"/><rect x="93.09" y="31.03" width="3.88" height="3.88" fill="#30ea2a"/><rect x="93.09" y="23.27" width="3.88" height="3.88" fill="#30ea2a"/><rect x="93.09" y="19.39" width="3.88" height="3.88" fill="#30ea2a"/><rect x="93.09" y="15.52" width="3.88" height="3.87" fill="#30ea2a"/><rect x="89.21" y="38.79" width="3.88" height="3.88" fill="#30ea2a"/><rect x="89.21" y="34.91" width="3.88" height="3.88" fill="#30ea2a"/><rect x="85.33" y="62.06" width="3.88" height="3.88" fill="#30ea2a"/><rect x="85.33" y="58.18" width="3.88" height="3.88" fill="#30ea2a"/><rect x="85.33" y="27.15" width="3.88" height="3.88" fill="#30ea2a"/><rect x="85.33" y="23.27" width="3.88" height="3.88" fill="#30ea2a"/><rect x="81.45" y="65.94" width="3.88" height="3.88" fill="#30ea2a"/><rect x="81.45" y="54.3" width="3.88" height="3.88" fill="#30ea2a"/><rect x="81.45" y="46.55" width="3.88" height="3.87" fill="#30ea2a"/><rect x="81.45" y="42.67" width="3.88" height="3.88" fill="#30ea2a"/><rect x="81.45" y="38.79" width="3.88" height="3.88" fill="#30ea2a"/><rect x="81.45" y="31.03" width="3.88" height="3.88" fill="#30ea2a"/><rect x="81.45" y="19.39" width="3.88" height="3.88" fill="#30ea2a"/><rect x="77.58" y="62.06" width="3.87" height="3.88" fill="#30ea2a"/><rect x="77.58" y="58.18" width="3.87" height="3.88" fill="#30ea2a"/><rect x="77.58" y="27.15" width="3.87" height="3.88" fill="#30ea2a"/><rect x="77.58" y="23.27" width="3.87" height="3.88" fill="#30ea2a"/><rect x="73.7" y="46.55" width="3.88" height="3.87" fill="#30ea2a"/><rect x="73.7" y="42.67" width="3.88" height="3.88" fill="#30ea2a"/><rect x="69.82" y="65.94" width="3.88" height="3.88" fill="#30ea2a"/><rect x="69.82" y="62.06" width="3.88" height="3.88" fill="#30ea2a"/><rect x="69.82" y="58.18" width="3.88" height="3.88" fill="#30ea2a"/><rect x="69.82" y="50.42" width="3.88" height="3.88" fill="#30ea2a"/><rect x="69.82" y="38.79" width="3.88" height="3.88" fill="#30ea2a"/><rect x="69.82" y="31.03" width="3.88" height="3.88" fill="#30ea2a"/><rect x="69.82" y="27.15" width="3.88" height="3.88" fill="#30ea2a"/><rect x="69.82" y="23.27" width="3.88" height="3.88" fill="#30ea2a"/><rect x="65.94" y="46.55" width="3.88" height="3.87" fill="#30ea2a"/><rect x="65.94" y="42.67" width="3.88" height="3.88" fill="#30ea2a"/><rect x="62.06" y="69.82" width="3.88" height="3.88" fill="#30ea2a"/><rect x="62.06" y="65.94" width="3.88" height="3.88" fill="#30ea2a"/><rect x="62.06" y="31.03" width="3.88" height="3.88" fill="#30ea2a"/><rect x="62.06" y="27.15" width="3.88" height="3.88" fill="#30ea2a"/><rect x="58.18" y="73.7" width="3.88" height="3.88" fill="#30ea2a"/><rect x="58.18" y="62.06" width="3.88" height="3.88" fill="#30ea2a"/><rect x="58.18" y="50.42" width="3.88" height="3.88" fill="#30ea2a"/><rect x="58.18" y="46.55" width="3.88" height="3.87" fill="#30ea2a"/><rect x="58.18" y="42.67" width="3.88" height="3.88" fill="#30ea2a"/><rect x="58.18" y="34.91" width="3.88" height="3.88" fill="#30ea2a"/><rect x="58.18" y="23.27" width="3.88" height="3.88" fill="#30ea2a"/><rect x="54.3" y="69.82" width="3.88" height="3.88" fill="#30ea2a"/><rect x="54.3" y="65.94" width="3.88" height="3.88" fill="#30ea2a"/><rect x="54.3" y="31.03" width="3.88" height="3.88" fill="#30ea2a"/><rect x="54.3" y="27.15" width="3.88" height="3.88" fill="#30ea2a"/><rect x="50.42" y="54.3" width="3.88" height="3.88" fill="#30ea2a"/><rect x="50.42" y="50.42" width="3.88" height="3.88" fill="#30ea2a"/><rect x="46.55" y="81.45" width="3.87" height="3.88" fill="#30ea2a"/><rect x="46.55" y="77.58" width="3.87" height="3.87" fill="#30ea2a"/><rect x="46.55" y="73.7" width="3.87" height="3.88" fill="#30ea2a"/><rect x="46.55" y="58.18" width="3.87" height="3.88" fill="#30ea2a"/><rect x="46.55" y="46.55" width="3.87" height="3.87" fill="#30ea2a"/><rect x="46.55" y="34.91" width="3.87" height="3.88" fill="#30ea2a"/><rect x="46.55" y="31.03" width="3.87" height="3.88" fill="#30ea2a"/><rect x="46.55" y="27.15" width="3.87" height="3.88" fill="#30ea2a"/><rect x="42.67" y="54.3" width="3.88" height="3.88" fill="#30ea2a"/><rect x="42.67" y="50.42" width="3.88" height="3.88" fill="#30ea2a"/></svg>