<svg id="b22736e6-9690-4a2a-8c8f-929ca4fd0c28" data-name="Layer 1" xmlns="http://www.w3.org/2000/svg" viewBox="0 0 128 128"><rect x="31.03" y="23.27" width="3.88" height="3.88" fill="#a80fef"/><rect x="31.03" y="27.15" width="3.88" height="3.88" fill="#a80fef"/><rect x="27.15" y="27.15" width="3.88" height="3.88" fill="#a80fef"/><rect x="23.27" y="3.88" width="3.88" height="3.88" fill="#a80fef"/><rect x="31.03" y="19.39" width="3.88" height="3.88" fill="#a80fef"/><rect x="31.03" y="15.52" width="3.88" height="3.87" fill="#a80fef"/><rect x="27.15" y="7.76" width="3.88" height="3.88" fill="#c0e6f9"/><rect x="27.15" y="11.64" width="3.88" height="3.88" fill="#c0e6f9"/><rect x="23.27" y="11.64" width="3.88" height="3.88" fill="#c0e6f9"/><rect x="27.15" y="19.39" width="3.88" height="3.88" fill="#a691f2"/><rect x="27.15" y="15.52" width="3.88" height="3.87" fill="#a80fef"/><rect x="27.15" y="23.27" width="3.88" height="3.88" fill="#a691f2"/><rect x="23.27" y="23.27" width="3.88" height="3.88" fill="#a691f2"/><rect x="23.27" y="19.39" width="3.88" height="3.88" fill="#c0e6f9"/><rect x="23.27" y="15.52" width="3.88" height="3.87" fill="#c0e6f9"/><rect x="89.21" y="23.27" width="3.88" height="3.88" fill="#a691f2"/><rect x="89.21" y="19.39" width="3.88" height="3.88" fill="#c0e6f9"/><rect x="85.33" y="7.76" width="3.88" height="3.88" fill="#c0e6f9"/><rect x="89.21" y="11.64" width="3.88" height="3.88" fill="#c0e6f9"/><rect x="89.21" y="15.52" width="3.88" height="3.87" fill="#c0e6f9"/><rect x="85.33" y="19.39" width="3.88" height="3.88" fill="#c0e6f9"/><rect x="85.33" y="15.52" width="3.88" height="3.87" fill="#a80fef"/><rect x="81.45" y="19.39" width="3.88" height="3.88" fill="#a80fef"/><rect x="81.45" y="23.27" width="3.88" height="3.88" fill="#a80fef"/><rect x="85.33" y="23.27" width="3.88" height="3.88" fill="#a691f2"/><rect x="85.33" y="27.15" width="3.88" height="3.88" fill="#a80fef"/><rect x="62.06" y="3.88" width="3.88" height="3.88" fill="#a691f2"/><rect x="54.3" y="27.15" width="3.88" height="3.88" fill="#a691f2"/><rect x="54.3" y="23.27" width="3.88" height="3.88" fill="#a691f2"/><rect x="54.3" y="19.39" width="3.88" height="3.88" fill="#c0e6f9"/><rect x="58.18" y="11.64" width="3.88" height="3.88" fill="#a691f2"/><rect x="58.18" y="23.27" width="3.88" height="3.88" fill="#c0e6f9"/><rect x="58.18" y="15.52" width="3.88" height="3.87" fill="#a691f2"/><rect x="58.18" y="27.15" width="3.88" height="3.88" fill="#a691f2"/><rect x="58.18" y="19.39" width="3.88" height="3.88" fill="#c0e6f9"/><rect x="62.06" y="27.15" width="3.88" height="3.88" fill="#a80fef"/><rect x="62.06" y="15.52" width="3.88" height="3.87" fill="#a80fef"/><rect x="58.18" y="7.76" width="3.88" height="3.88" fill="#a80fef"/><rect x="62.06" y="23.27" width="3.88" height="3.88" fill="#a691f2"/><rect x="62.06" y="19.39" width="3.88" height="3.88" fill="#a80fef"/><rect x="46.55" y="96.97" width="3.87" height="3.88" fill="#685225"/><rect x="42.67" y="96.97" width="3.88" height="3.88" fill="#aa8035"/><rect x="42.67" y="93.09" width="3.88" height="3.88" fill="#aa8035"/><rect x="85.33" y="108.61" width="3.88" height="3.87" fill="#2e3f44"/><rect x="85.33" y="104.73" width="3.88" height="3.88" fill="#5a6e75"/><rect x="81.45" y="108.61" width="3.88" height="3.87" fill="#2e3f44"/><rect x="81.45" y="104.73" width="3.88" height="3.88" fill="#5a6e75"/><rect x="77.58" y="108.61" width="3.87" height="3.87" fill="#2e3f44"/><rect x="77.58" y="104.73" width="3.87" height="3.88" fill="#c0e6f9"/><rect x="77.58" y="100.85" width="3.87" height="3.88" fill="#c0e6f9"/><rect x="73.7" y="112.48" width="3.88" height="3.88" fill="#2e3f44"/><rect x="73.7" y="108.61" width="3.88" height="3.87" fill="#2e3f44"/><rect x="73.7" y="104.73" width="3.88" height="3.88" fill="#5a6e75"/><rect x="73.7" y="100.85" width="3.88" height="3.88" fill="#c0e6f9"/><rect x="69.82" y="112.48" width="3.88" height="3.88" fill="#2e3f44"/><rect x="69.82" y="108.61" width="3.88" height="3.87" fill="#5a6e75"/><rect x="69.82" y="104.73" width="3.88" height="3.88" fill="#2e3f44"/><rect x="69.82" y="100.85" width="3.88" height="3.88" fill="#2e3f44"/><rect x="65.94" y="112.48" width="3.88" height="3.88" fill="#2e3f44"/><rect x="65.94" y="108.61" width="3.88" height="3.87" fill="#5a6e75"/><rect x="65.94" y="104.73" width="3.88" height="3.88" fill="#2e3f44"/><rect x="65.94" y="100.85" width="3.88" height="3.88" fill="#2e3f44"/><rect x="65.94" y="96.97" width="3.88" height="3.88" fill="#c0e6f9"/><rect x="62.06" y="112.48" width="3.88" height="3.88" fill="#2e3f44"/><rect x="62.06" y="108.61" width="3.88" height="3.87" fill="#5a6e75"/><rect x="62.06" y="104.73" width="3.88" height="3.88" fill="#c0e6f9"/><rect x="62.06" y="100.85" width="3.88" height="3.88" fill="#2e3f44"/><rect x="62.06" y="96.97" width="3.88" height="3.88" fill="#2e3f44"/><rect x="62.06" y="93.09" width="3.88" height="3.88" fill="#5a6e75"/><rect x="62.06" y="89.21" width="3.88" height="3.88" fill="#5a6e75"/><rect x="62.06" y="85.33" width="3.88" height="3.88" fill="#5a6e75"/><rect x="62.06" y="81.45" width="3.88" height="3.88" fill="#5a6e75"/><rect x="62.06" y="77.58" width="3.88" height="3.87" fill="#5a6e75"/><rect x="62.06" y="73.7" width="3.88" height="3.88" fill="#5a6e75"/><rect x="62.06" y="69.82" width="3.88" height="3.88" fill="#5a6e75"/><rect x="62.06" y="65.94" width="3.88" height="3.88" fill="#5a6e75"/><rect x="62.06" y="62.06" width="3.88" height="3.88" fill="#5a6e75"/><rect x="62.06" y="58.18" width="3.88" height="3.88" fill="#5a6e75"/><rect x="62.06" y="54.3" width="3.88" height="3.88" fill="#2e3f44"/><rect x="62.06" y="50.42" width="3.88" height="3.88" fill="#5a6e75"/><rect x="62.06" y="46.55" width="3.88" height="3.87" fill="#2e3f44"/><rect x="62.06" y="42.67" width="3.88" height="3.88" fill="#5a6e75"/><rect x="62.06" y="38.79" width="3.88" height="3.88" fill="#5a6e75"/><rect x="62.06" y="34.91" width="3.88" height="3.88" fill="#2e3f44"/><rect x="58.18" y="112.48" width="3.88" height="3.88" fill="#2e3f44"/><rect x="58.18" y="108.61" width="3.88" height="3.87" fill="#5a6e75"/><rect x="58.18" y="104.73" width="3.88" height="3.88" fill="#c0e6f9"/><rect x="58.18" y="100.85" width="3.88" height="3.88" fill="#c0e6f9"/><rect x="58.18" y="96.97" width="3.88" height="3.88" fill="#c0e6f9"/><rect x="58.18" y="93.09" width="3.88" height="3.88" fill="#c0e6f9"/><rect x="58.18" y="89.21" width="3.88" height="3.88" fill="#c0e6f9"/><rect x="58.18" y="85.33" width="3.88" height="3.88" fill="#c0e6f9"/><rect x="58.18" y="81.45" width="3.88" height="3.88" fill="#c0e6f9"/><rect x="58.18" y="77.58" width="3.88" height="3.87" fill="#c0e6f9"/><rect x="58.18" y="73.7" width="3.88" height="3.88" fill="#c0e6f9"/><rect x="58.18" y="69.82" width="3.88" height="3.88" fill="#c0e6f9"/><rect x="58.18" y="65.94" width="3.88" height="3.88" fill="#c0e6f9"/><rect x="58.18" y="62.06" width="3.88" height="3.88" fill="#c0e6f9"/><rect x="58.18" y="58.18" width="3.88" height="3.88" fill="#c0e6f9"/><rect x="58.18" y="54.3" width="3.88" height="3.88" fill="#5a6e75"/><rect x="58.18" y="50.42" width="3.88" height="3.88" fill="#c0e6f9"/><rect x="58.18" y="46.55" width="3.88" height="3.87" fill="#5a6e75"/><rect x="58.18" y="42.67" width="3.88" height="3.88" fill="#c0e6f9"/><rect x="58.18" y="38.79" width="3.88" height="3.88" fill="#c0e6f9"/><rect x="58.18" y="34.91" width="3.88" height="3.88" fill="#5a6e75"/><rect x="54.3" y="112.48" width="3.88" height="3.88" fill="#2e3f44"/><rect x="54.3" y="108.61" width="3.88" height="3.87" fill="#c0e6f9"/><rect x="54.3" y="104.73" width="3.88" height="3.88" fill="#c0e6f9"/><rect x="54.3" y="100.85" width="3.88" height="3.88" fill="#5a6e75"/><rect x="54.3" y="96.97" width="3.88" height="3.88" fill="#5a6e75"/><rect x="50.42" y="112.48" width="3.88" height="3.88" fill="#2e3f44"/><rect x="50.42" y="108.61" width="3.88" height="3.87" fill="#c0e6f9"/><rect x="50.42" y="104.73" width="3.88" height="3.88" fill="#c0e6f9"/><rect x="50.42" y="100.85" width="3.88" height="3.88" fill="#5a6e75"/><rect x="46.55" y="112.48" width="3.87" height="3.88" fill="#2e3f44"/><rect x="46.55" y="108.61" width="3.87" height="3.87" fill="#c0e6f9"/><rect x="46.55" y="104.73" width="3.87" height="3.88" fill="#c0e6f9"/><rect x="46.55" y="100.85" width="3.87" height="3.88" fill="#c0e6f9"/><rect x="46.55" y="93.09" width="3.87" height="3.88" fill="#685225"/><rect x="42.67" y="108.61" width="3.88" height="3.87" fill="#2e3f44"/><rect x="42.67" y="104.73" width="3.88" height="3.88" fill="#c0e6f9"/><rect x="42.67" y="100.85" width="3.88" height="3.88" fill="#c0e6f9"/><rect x="42.67" y="89.21" width="3.88" height="3.88" fill="#685225"/><rect x="38.79" y="108.61" width="3.88" height="3.87" fill="#2e3f44"/><rect x="38.79" y="104.73" width="3.88" height="3.88" fill="#c0e6f9"/><rect x="38.79" y="89.21" width="3.88" height="3.88" fill="#685225"/><rect x="38.79" y="85.33" width="3.88" height="3.88" fill="#aa8035"/><rect x="34.91" y="104.73" width="3.88" height="3.88" fill="#2e3f44"/><rect x="34.91" y="89.21" width="3.88" height="3.88" fill="#685225"/><rect x="34.91" y="85.33" width="3.88" height="3.88" fill="#aa8035"/><rect x="31.03" y="89.21" width="3.88" height="3.88" fill="#685225"/><rect x="31.03" y="85.33" width="3.88" height="3.88" fill="#aa8035"/><rect x="27.15" y="89.21" width="3.88" height="3.88" fill="#685225"/><rect x="27.15" y="85.33" width="3.88" height="3.88" fill="#aa8035"/><rect x="23.27" y="89.21" width="3.88" height="3.88" fill="#685225"/><rect x="23.27" y="85.33" width="3.88" height="3.88" fill="#aa8035"/><rect x="19.39" y="93.09" width="3.88" height="3.88" fill="#685225"/><rect x="19.39" y="89.21" width="3.88" height="3.88" fill="#aa8035"/><rect x="15.52" y="96.97" width="3.87" height="3.88" fill="#685225"/><rect x="15.52" y="93.09" width="3.87" height="3.88" fill="#aa8035"/><rect x="11.64" y="100.85" width="3.88" height="3.88" fill="#685225"/><rect x="11.64" y="96.97" width="3.88" height="3.88" fill="#aa8035"/><rect x="7.76" y="104.73" width="3.88" height="3.88" fill="#685225"/><rect x="7.76" y="100.85" width="3.88" height="3.88" fill="#aa8035"/><rect x="3.88" y="108.61" width="3.88" height="3.87" fill="#685225"/><rect x="3.88" y="104.73" width="3.88" height="3.88" fill="#aa8035"/></svg>