<svg id="e2d7a008-6481-4c64-960b-d6bf5053a2f2" data-name="Layer 1" xmlns="http://www.w3.org/2000/svg" viewBox="0 0 128 128"><rect x="108.61" y="108.61" width="3.87" height="3.87" fill="#8e8888"/><rect x="108.61" y="104.73" width="3.87" height="3.88" fill="#8e8888"/><rect x="108.61" y="100.85" width="3.87" height="3.88" fill="#8e8888"/><rect x="108.61" y="81.45" width="3.87" height="3.88" fill="#8e8888"/><rect x="108.61" y="77.58" width="3.87" height="3.87" fill="#8e8888"/><rect x="108.61" y="73.7" width="3.87" height="3.88" fill="#8e8888"/><rect x="108.61" y="69.82" width="3.87" height="3.88" fill="#8e8888"/><rect x="108.61" y="65.94" width="3.87" height="3.88" fill="#8e8888"/><rect x="108.61" y="62.06" width="3.87" height="3.88" fill="#8e8888"/><rect x="108.61" y="58.18" width="3.87" height="3.88" fill="#8e8888"/><rect x="108.61" y="54.3" width="3.87" height="3.88" fill="#8e8888"/><rect x="108.61" y="50.42" width="3.87" height="3.88" fill="#8e8888"/><rect x="108.61" y="46.55" width="3.87" height="3.87" fill="#8e8888"/><rect x="108.61" y="42.67" width="3.87" height="3.88" fill="#8e8888"/><rect x="108.61" y="38.79" width="3.87" height="3.88" fill="#8e8888"/><rect x="108.61" y="34.91" width="3.87" height="3.88" fill="#8e8888"/><rect x="108.61" y="31.03" width="3.87" height="3.88" fill="#8e8888"/><rect x="108.61" y="27.15" width="3.87" height="3.88" fill="#8e8888"/><rect x="108.61" y="23.27" width="3.87" height="3.88" fill="#8e8888"/><rect x="108.61" y="19.39" width="3.87" height="3.88" fill="#8e8888"/><rect x="108.61" y="15.52" width="3.87" height="3.87" fill="#8e8888"/><rect x="108.61" y="11.64" width="3.87" height="3.88" fill="#8e8888"/><rect x="104.73" y="112.48" width="3.88" height="3.88" fill="#8e8888"/><rect x="104.73" y="108.61" width="3.88" height="3.87" fill="#8e8888"/><rect x="104.73" y="104.73" width="3.88" height="3.88" fill="#ccc2c2"/><rect x="104.73" y="100.85" width="3.88" height="3.88" fill="#8e8888"/><rect x="104.73" y="81.45" width="3.88" height="3.88" fill="#8e8888"/><rect x="104.73" y="77.58" width="3.88" height="3.87" fill="#ccc2c2"/><rect x="104.73" y="73.7" width="3.88" height="3.88" fill="#ccc2c2"/><rect x="104.73" y="69.82" width="3.88" height="3.88" fill="#ccc2c2"/><rect x="104.73" y="65.94" width="3.88" height="3.88" fill="#ccc2c2"/><rect x="104.73" y="62.06" width="3.88" height="3.88" fill="#ccc2c2"/><rect x="104.73" y="58.18" width="3.88" height="3.88" fill="#ccc2c2"/><rect x="104.73" y="54.3" width="3.88" height="3.88" fill="#ccc2c2"/><rect x="104.73" y="50.42" width="3.88" height="3.88" fill="#ccc2c2"/><rect x="104.73" y="46.55" width="3.88" height="3.87" fill="#ccc2c2"/><rect x="104.73" y="42.67" width="3.88" height="3.88" fill="#ccc2c2"/><rect x="104.73" y="38.79" width="3.88" height="3.88" fill="#ccc2c2"/><rect x="104.73" y="34.91" width="3.88" height="3.88" fill="#ccc2c2"/><rect x="104.73" y="31.03" width="3.88" height="3.88" fill="#ccc2c2"/><rect x="104.73" y="27.15" width="3.88" height="3.88" fill="#ccc2c2"/><rect x="104.73" y="23.27" width="3.88" height="3.88" fill="#ccc2c2"/><rect x="104.73" y="19.39" width="3.88" height="3.88" fill="#ccc2c2"/><rect x="104.73" y="15.52" width="3.88" height="3.87" fill="#ccc2c2"/><rect x="104.73" y="11.64" width="3.88" height="3.88" fill="#ccc2c2"/><rect x="100.85" y="116.36" width="3.88" height="3.88" fill="#8e8888"/><rect x="100.85" y="112.48" width="3.88" height="3.88" fill="#8e8888"/><rect x="100.85" y="108.61" width="3.88" height="3.87" fill="#ccc2c2"/><rect x="100.85" y="104.73" width="3.88" height="3.88" fill="#ccc2c2"/><rect x="100.85" y="100.85" width="3.88" height="3.88" fill="#8e8888"/><rect x="100.85" y="81.45" width="3.88" height="3.88" fill="#8e8888"/><rect x="100.85" y="77.58" width="3.88" height="3.87" fill="#8e8888"/><rect x="100.85" y="73.7" width="3.88" height="3.88"/><rect x="100.85" y="69.82" width="3.88" height="3.88"/><rect x="100.85" y="65.94" width="3.88" height="3.88"/><rect x="100.85" y="62.06" width="3.88" height="3.88"/><rect x="100.85" y="58.18" width="3.88" height="3.88"/><rect x="100.85" y="54.3" width="3.88" height="3.88"/><rect x="100.85" y="50.42" width="3.88" height="3.88"/><rect x="100.85" y="46.55" width="3.88" height="3.87"/><rect x="100.85" y="42.67" width="3.88" height="3.88"/><rect x="100.85" y="38.79" width="3.88" height="3.88"/><rect x="100.85" y="34.91" width="3.88" height="3.88"/><rect x="100.85" y="31.03" width="3.88" height="3.88"/><rect x="100.85" y="27.15" width="3.88" height="3.88"/><rect x="100.85" y="23.27" width="3.88" height="3.88"/><rect x="100.85" y="19.39" width="3.88" height="3.88"/><rect x="100.85" y="15.52" width="3.88" height="3.87"/><rect x="100.85" y="11.64" width="3.88" height="3.88" fill="#ccc2c2"/><rect x="96.97" y="120.24" width="3.88" height="3.88" fill="#8e8888"/><rect x="96.97" y="116.36" width="3.88" height="3.88" fill="#8e8888"/><rect x="96.97" y="112.48" width="3.88" height="3.88" fill="#ccc2c2"/><rect x="96.97" y="108.61" width="3.88" height="3.87" fill="#ccc2c2"/><rect x="96.97" y="104.73" width="3.88" height="3.88" fill="#ccc2c2"/><rect x="96.97" y="100.85" width="3.88" height="3.88" fill="#8e8888"/><rect x="96.97" y="96.97" width="3.88" height="3.88" fill="#8e8888"/><rect x="96.97" y="81.45" width="3.88" height="3.88" fill="#8e8888"/><rect x="96.97" y="77.58" width="3.88" height="3.87" fill="#8e8888"/><rect x="96.97" y="73.7" width="3.88" height="3.88"/><rect x="96.97" y="69.82" width="3.88" height="3.88"/><rect x="96.97" y="65.94" width="3.88" height="3.88"/><rect x="96.97" y="62.06" width="3.88" height="3.88"/><rect x="96.97" y="58.18" width="3.88" height="3.88"/><rect x="96.97" y="54.3" width="3.88" height="3.88"/><rect x="96.97" y="50.42" width="3.88" height="3.88"/><rect x="96.97" y="46.55" width="3.88" height="3.87"/><rect x="96.97" y="42.67" width="3.88" height="3.88"/><rect x="96.97" y="38.79" width="3.88" height="3.88"/><rect x="96.97" y="34.91" width="3.88" height="3.88"/><rect x="96.97" y="31.03" width="3.88" height="3.88"/><rect x="96.97" y="27.15" width="3.88" height="3.88"/><rect x="96.97" y="23.27" width="3.88" height="3.88"/><rect x="96.97" y="19.39" width="3.88" height="3.88"/><rect x="96.97" y="15.52" width="3.88" height="3.87"/><rect x="96.97" y="11.64" width="3.88" height="3.88" fill="#ccc2c2"/><rect x="93.09" y="120.24" width="3.88" height="3.88" fill="#8e8888"/><rect x="93.09" y="116.36" width="3.88" height="3.88" fill="#ccc2c2"/><rect x="93.09" y="112.48" width="3.88" height="3.88" fill="#ccc2c2"/><rect x="93.09" y="108.61" width="3.88" height="3.87" fill="#8e8888"/><rect x="93.09" y="104.73" width="3.88" height="3.88" fill="#ccc2c2"/><rect x="93.09" y="100.85" width="3.88" height="3.88" fill="#ccc2c2"/><rect x="93.09" y="96.97" width="3.88" height="3.88" fill="#8e8888"/><rect x="93.09" y="81.45" width="3.88" height="3.88" fill="#8e8888"/><rect x="93.09" y="77.58" width="3.88" height="3.87" fill="#8e8888"/><rect x="93.09" y="73.7" width="3.88" height="3.88"/><rect x="93.09" y="69.82" width="3.88" height="3.88"/><rect x="93.09" y="65.94" width="3.88" height="3.88"/><rect x="93.09" y="62.06" width="3.88" height="3.88"/><rect x="93.09" y="58.18" width="3.88" height="3.88"/><rect x="93.09" y="54.3" width="3.88" height="3.88"/><rect x="93.09" y="50.42" width="3.88" height="3.88"/><rect x="93.09" y="46.55" width="3.88" height="3.87"/><rect x="93.09" y="42.67" width="3.88" height="3.88"/><rect x="93.09" y="38.79" width="3.88" height="3.88"/><rect x="93.09" y="34.91" width="3.88" height="3.88"/><rect x="93.09" y="31.03" width="3.88" height="3.88"/><rect x="93.09" y="27.15" width="3.88" height="3.88"/><rect x="93.09" y="23.27" width="3.88" height="3.88"/><rect x="93.09" y="19.39" width="3.88" height="3.88"/><rect x="93.09" y="15.52" width="3.88" height="3.87"/><rect x="93.09" y="11.64" width="3.88" height="3.88" fill="#ccc2c2"/><rect x="89.21" y="120.24" width="3.88" height="3.88" fill="#8e8888"/><rect x="89.21" y="116.36" width="3.88" height="3.88" fill="#ccc2c2"/><rect x="89.21" y="112.48" width="3.88" height="3.88" fill="#ccc2c2"/><rect x="89.21" y="108.61" width="3.88" height="3.87" fill="#ccc2c2"/><rect x="89.21" y="104.73" width="3.88" height="3.88" fill="#8e8888"/><rect x="89.21" y="100.85" width="3.88" height="3.88" fill="#ccc2c2"/><rect x="89.21" y="96.97" width="3.88" height="3.88" fill="#8e8888"/><rect x="89.21" y="81.45" width="3.88" height="3.88" fill="#8e8888"/><rect x="89.21" y="77.58" width="3.88" height="3.87" fill="#8e8888"/><rect x="89.21" y="73.7" width="3.88" height="3.88"/><rect x="89.21" y="69.82" width="3.88" height="3.88"/><rect x="89.21" y="65.94" width="3.88" height="3.88"/><rect x="89.21" y="62.06" width="3.88" height="3.88"/><rect x="89.21" y="58.18" width="3.88" height="3.88"/><rect x="89.21" y="54.3" width="3.88" height="3.88"/><rect x="89.21" y="50.42" width="3.88" height="3.88"/><rect x="89.21" y="46.55" width="3.88" height="3.87"/><rect x="89.21" y="42.67" width="3.88" height="3.88"/><rect x="89.21" y="38.79" width="3.88" height="3.88"/><rect x="89.21" y="34.91" width="3.88" height="3.88"/><rect x="89.21" y="31.03" width="3.88" height="3.88"/><rect x="89.21" y="27.15" width="3.88" height="3.88"/><rect x="89.21" y="23.27" width="3.88" height="3.88"/><rect x="89.21" y="19.39" width="3.88" height="3.88"/><rect x="89.21" y="15.52" width="3.88" height="3.87"/><rect x="89.21" y="11.64" width="3.88" height="3.88" fill="#ccc2c2"/><rect x="85.33" y="120.24" width="3.88" height="3.88" fill="#8e8888"/><rect x="85.33" y="116.36" width="3.88" height="3.88" fill="#8e8888"/><rect x="85.33" y="112.48" width="3.88" height="3.88" fill="#ccc2c2"/><rect x="85.33" y="108.61" width="3.88" height="3.87" fill="#8e8888"/><rect x="85.33" y="104.73" width="3.88" height="3.88" fill="#8e8888"/><rect x="85.33" y="100.85" width="3.88" height="3.88" fill="#ccc2c2"/><rect x="85.33" y="96.97" width="3.88" height="3.88" fill="#8e8888"/><rect x="85.33" y="93.09" width="3.88" height="3.88" fill="#8e8888"/><rect x="85.33" y="89.21" width="3.88" height="3.88" fill="#8e8888"/><rect x="85.33" y="85.33" width="3.88" height="3.88" fill="#8e8888"/><rect x="85.33" y="81.45" width="3.88" height="3.88" fill="#8e8888"/><rect x="85.33" y="77.58" width="3.88" height="3.87" fill="#8e8888"/><rect x="85.33" y="73.7" width="3.88" height="3.88"/><rect x="85.33" y="69.82" width="3.88" height="3.88"/><rect x="85.33" y="65.94" width="3.88" height="3.88"/><rect x="85.33" y="62.06" width="3.88" height="3.88"/><rect x="85.33" y="58.18" width="3.88" height="3.88"/><rect x="85.33" y="54.3" width="3.88" height="3.88"/><rect x="85.33" y="50.42" width="3.88" height="3.88"/><rect x="85.33" y="46.55" width="3.88" height="3.87"/><rect x="85.33" y="42.67" width="3.88" height="3.88"/><rect x="85.33" y="38.79" width="3.88" height="3.88"/><rect x="85.33" y="34.91" width="3.88" height="3.88"/><rect x="85.33" y="31.03" width="3.88" height="3.88"/><rect x="85.33" y="27.15" width="3.88" height="3.88"/><rect x="85.33" y="23.27" width="3.88" height="3.88"/><rect x="85.33" y="19.39" width="3.88" height="3.88"/><rect x="85.33" y="15.52" width="3.88" height="3.87"/><rect x="85.33" y="11.64" width="3.88" height="3.88" fill="#ccc2c2"/><rect x="81.45" y="116.36" width="3.88" height="3.88" fill="#8e8888"/><rect x="81.45" y="112.48" width="3.88" height="3.88" fill="#ccc2c2"/><rect x="81.45" y="108.61" width="3.88" height="3.87" fill="#ccc2c2"/><rect x="81.45" y="104.73" width="3.88" height="3.88" fill="#ccc2c2"/><rect x="81.45" y="100.85" width="3.88" height="3.88" fill="#ccc2c2"/><rect x="81.45" y="96.97" width="3.88" height="3.88" fill="#ccc2c2"/><rect x="81.45" y="93.09" width="3.88" height="3.88" fill="#8e8888"/><rect x="81.45" y="89.21" width="3.88" height="3.88" fill="#8e8888"/><rect x="81.45" y="85.33" width="3.88" height="3.88" fill="#ccc2c2"/><rect x="81.45" y="81.45" width="3.88" height="3.88" fill="#8e8888"/><rect x="81.45" y="77.58" width="3.88" height="3.87" fill="#8e8888"/><rect x="81.45" y="73.7" width="3.88" height="3.88"/><rect x="81.45" y="69.82" width="3.88" height="3.88"/><rect x="81.45" y="65.94" width="3.88" height="3.88"/><rect x="81.45" y="62.06" width="3.88" height="3.88"/><rect x="81.45" y="58.18" width="3.88" height="3.88"/><rect x="81.45" y="54.3" width="3.88" height="3.88"/><rect x="81.45" y="50.42" width="3.88" height="3.88"/><rect x="81.45" y="46.55" width="3.88" height="3.87"/><rect x="81.45" y="42.67" width="3.88" height="3.88"/><rect x="81.45" y="38.79" width="3.88" height="3.88"/><rect x="81.45" y="34.91" width="3.88" height="3.88"/><rect x="81.45" y="31.03" width="3.88" height="3.88"/><rect x="81.45" y="27.15" width="3.88" height="3.88"/><rect x="81.45" y="23.27" width="3.88" height="3.88"/><rect x="81.45" y="19.39" width="3.88" height="3.88"/><rect x="81.45" y="15.52" width="3.88" height="3.87"/><rect x="81.45" y="11.64" width="3.88" height="3.88" fill="#ccc2c2"/><rect x="77.58" y="116.36" width="3.87" height="3.88" fill="#8e8888"/><rect x="77.58" y="112.48" width="3.87" height="3.88" fill="#ccc2c2"/><rect x="77.58" y="108.61" width="3.87" height="3.87" fill="#ccc2c2"/><rect x="77.58" y="104.73" width="3.87" height="3.88" fill="#ccc2c2"/><rect x="77.58" y="100.85" width="3.87" height="3.88" fill="#8e8888"/><rect x="77.58" y="96.97" width="3.87" height="3.88" fill="#ccc2c2"/><rect x="77.58" y="93.09" width="3.87" height="3.88" fill="#8e8888"/><rect x="77.58" y="89.21" width="3.87" height="3.88" fill="#ccc2c2"/><rect x="77.58" y="85.33" width="3.87" height="3.88" fill="#ccc2c2"/><rect x="77.58" y="81.45" width="3.87" height="3.88" fill="#8e8888"/><rect x="77.58" y="77.58" width="3.87" height="3.87" fill="#8e8888"/><rect x="77.58" y="73.7" width="3.87" height="3.88"/><rect x="77.58" y="69.82" width="3.87" height="3.88"/><rect x="77.58" y="65.94" width="3.87" height="3.88"/><rect x="77.58" y="62.06" width="3.87" height="3.88"/><rect x="77.58" y="58.18" width="3.87" height="3.88"/><rect x="77.58" y="54.3" width="3.87" height="3.88"/><rect x="77.58" y="50.42" width="3.87" height="3.88"/><rect x="77.58" y="46.55" width="3.87" height="3.87"/><rect x="77.58" y="42.67" width="3.87" height="3.88"/><rect x="77.58" y="38.79" width="3.87" height="3.88"/><rect x="77.58" y="34.91" width="3.87" height="3.88"/><rect x="77.58" y="31.03" width="3.87" height="3.88"/><rect x="77.58" y="27.15" width="3.87" height="3.88"/><rect x="77.58" y="23.27" width="3.87" height="3.88"/><rect x="77.58" y="19.39" width="3.87" height="3.88"/><rect x="77.58" y="15.52" width="3.87" height="3.87"/><rect x="77.58" y="11.64" width="3.87" height="3.88" fill="#ccc2c2"/><rect x="73.7" y="116.36" width="3.88" height="3.88" fill="#8e8888"/><rect x="73.7" y="112.48" width="3.88" height="3.88" fill="#ccc2c2"/><rect x="73.7" y="108.61" width="3.88" height="3.87" fill="#8e8888"/><rect x="73.7" y="104.73" width="3.88" height="3.88" fill="#ccc2c2"/><rect x="73.7" y="100.85" width="3.88" height="3.88" fill="#ccc2c2"/><rect x="73.7" y="96.97" width="3.88" height="3.88" fill="#ccc2c2"/><rect x="73.7" y="93.09" width="3.88" height="3.88" fill="#ccc2c2"/><rect x="73.7" y="81.45" width="3.88" height="3.88" fill="#8e8888"/><rect x="73.7" y="77.58" width="3.88" height="3.87" fill="#8e8888"/><rect x="73.7" y="73.7" width="3.88" height="3.88"/><rect x="73.7" y="69.82" width="3.88" height="3.88"/><rect x="73.7" y="65.94" width="3.88" height="3.88"/><rect x="73.7" y="62.06" width="3.88" height="3.88"/><rect x="73.7" y="58.18" width="3.88" height="3.88"/><rect x="73.7" y="54.3" width="3.88" height="3.88"/><rect x="73.7" y="50.42" width="3.88" height="3.88"/><rect x="73.7" y="46.55" width="3.88" height="3.87"/><rect x="73.7" y="42.67" width="3.88" height="3.88"/><rect x="73.7" y="38.79" width="3.88" height="3.88"/><rect x="73.7" y="34.91" width="3.88" height="3.88"/><rect x="73.7" y="31.03" width="3.88" height="3.88"/><rect x="73.7" y="27.15" width="3.88" height="3.88"/><rect x="73.7" y="23.27" width="3.88" height="3.88"/><rect x="73.7" y="19.39" width="3.88" height="3.88"/><rect x="73.7" y="15.52" width="3.88" height="3.87" fill="#ccc2c2"/><rect x="73.7" y="11.64" width="3.88" height="3.88" fill="#ccc2c2"/><rect x="69.82" y="116.36" width="3.88" height="3.88" fill="#8e8888"/><rect x="69.82" y="112.48" width="3.88" height="3.88" fill="#ccc2c2"/><rect x="69.82" y="108.61" width="3.88" height="3.87" fill="#ccc2c2"/><rect x="69.82" y="104.73" width="3.88" height="3.88" fill="#ccc2c2"/><rect x="69.82" y="100.85" width="3.88" height="3.88" fill="#8e8888"/><rect x="69.82" y="96.97" width="3.88" height="3.88" fill="#ccc2c2"/><rect x="69.82" y="93.09" width="3.88" height="3.88" fill="#ccc2c2"/><rect x="69.82" y="77.58" width="3.88" height="3.87" fill="#8e8888"/><rect x="69.82" y="73.7" width="3.88" height="3.88" fill="#8e8888"/><rect x="69.82" y="69.82" width="3.88" height="3.88"/><rect x="69.82" y="65.94" width="3.88" height="3.88"/><rect x="69.82" y="62.06" width="3.88" height="3.88"/><rect x="69.82" y="58.18" width="3.88" height="3.88"/><rect x="69.82" y="54.3" width="3.88" height="3.88"/><rect x="69.82" y="50.42" width="3.88" height="3.88"/><rect x="69.82" y="46.55" width="3.88" height="3.87"/><rect x="69.82" y="42.67" width="3.88" height="3.88"/><rect x="69.82" y="38.79" width="3.88" height="3.88"/><rect x="69.82" y="34.91" width="3.88" height="3.88"/><rect x="69.82" y="31.03" width="3.88" height="3.88"/><rect x="69.82" y="27.15" width="3.88" height="3.88"/><rect x="69.82" y="23.27" width="3.88" height="3.88"/><rect x="69.82" y="19.39" width="3.88" height="3.88"/><rect x="69.82" y="15.52" width="3.88" height="3.87" fill="#ccc2c2"/><rect x="65.94" y="112.48" width="3.88" height="3.88" fill="#8e8888"/><rect x="65.94" y="108.61" width="3.88" height="3.87" fill="#ccc2c2"/><rect x="65.94" y="104.73" width="3.88" height="3.88" fill="#8e8888"/><rect x="65.94" y="100.85" width="3.88" height="3.88" fill="#ccc2c2"/><rect x="65.94" y="96.97" width="3.88" height="3.88" fill="#8e8888"/><rect x="65.94" y="93.09" width="3.88" height="3.88" fill="#ccc2c2"/><rect x="65.94" y="73.7" width="3.88" height="3.88" fill="#8e8888"/><rect x="65.94" y="69.82" width="3.88" height="3.88"/><rect x="65.94" y="65.94" width="3.88" height="3.88"/><rect x="65.94" y="62.06" width="3.88" height="3.88"/><rect x="65.94" y="58.18" width="3.88" height="3.88"/><rect x="65.94" y="54.3" width="3.88" height="3.88"/><rect x="65.94" y="50.42" width="3.88" height="3.88"/><rect x="65.94" y="46.55" width="3.88" height="3.87"/><rect x="65.94" y="42.67" width="3.88" height="3.88"/><rect x="65.94" y="38.79" width="3.88" height="3.88"/><rect x="65.94" y="34.91" width="3.88" height="3.88"/><rect x="65.94" y="31.03" width="3.88" height="3.88"/><rect x="65.94" y="27.15" width="3.88" height="3.88"/><rect x="65.94" y="23.27" width="3.88" height="3.88"/><rect x="65.94" y="19.39" width="3.88" height="3.88"/><rect x="65.94" y="15.52" width="3.88" height="3.87" fill="#ccc2c2"/><rect x="62.06" y="112.48" width="3.88" height="3.88" fill="#8e8888"/><rect x="62.06" y="108.61" width="3.88" height="3.87" fill="#ccc2c2"/><rect x="62.06" y="104.73" width="3.88" height="3.88" fill="#ccc2c2"/><rect x="62.06" y="100.85" width="3.88" height="3.88" fill="#8e8888"/><rect x="62.06" y="96.97" width="3.88" height="3.88" fill="#ccc2c2"/><rect x="62.06" y="93.09" width="3.88" height="3.88" fill="#ccc2c2"/><rect x="62.06" y="73.7" width="3.88" height="3.88" fill="#8e8888"/><rect x="62.06" y="69.82" width="3.88" height="3.88"/><rect x="62.06" y="65.94" width="3.88" height="3.88"/><rect x="62.06" y="62.06" width="3.88" height="3.88"/><rect x="62.06" y="58.18" width="3.88" height="3.88"/><rect x="62.06" y="54.3" width="3.88" height="3.88"/><rect x="62.06" y="50.42" width="3.88" height="3.88"/><rect x="62.06" y="46.55" width="3.88" height="3.87"/><rect x="62.06" y="42.67" width="3.88" height="3.88"/><rect x="62.06" y="38.79" width="3.88" height="3.88"/><rect x="62.06" y="34.91" width="3.88" height="3.88"/><rect x="62.06" y="31.03" width="3.88" height="3.88"/><rect x="62.06" y="27.15" width="3.88" height="3.88"/><rect x="62.06" y="23.27" width="3.88" height="3.88"/><rect x="62.06" y="19.39" width="3.88" height="3.88"/><rect x="62.06" y="15.52" width="3.88" height="3.87" fill="#ccc2c2"/><rect x="58.18" y="108.61" width="3.88" height="3.87" fill="#8e8888"/><rect x="58.18" y="104.73" width="3.88" height="3.88" fill="#ccc2c2"/><rect x="58.18" y="100.85" width="3.88" height="3.88" fill="#ccc2c2"/><rect x="58.18" y="96.97" width="3.88" height="3.88" fill="#8e8888"/><rect x="58.18" y="93.09" width="3.88" height="3.88" fill="#ccc2c2"/><rect x="58.18" y="89.21" width="3.88" height="3.88" fill="#ccc2c2"/><rect x="58.18" y="73.7" width="3.88" height="3.88" fill="#8e8888"/><rect x="58.18" y="69.82" width="3.88" height="3.88"/><rect x="58.18" y="65.94" width="3.88" height="3.88"/><rect x="58.18" y="62.06" width="3.88" height="3.88"/><rect x="58.18" y="58.18" width="3.88" height="3.88"/><rect x="58.18" y="54.3" width="3.88" height="3.88"/><rect x="58.18" y="50.42" width="3.88" height="3.88"/><rect x="58.18" y="46.55" width="3.88" height="3.87"/><rect x="58.18" y="42.67" width="3.88" height="3.88"/><rect x="58.18" y="38.79" width="3.88" height="3.88"/><rect x="58.18" y="34.91" width="3.88" height="3.88"/><rect x="58.18" y="31.03" width="3.88" height="3.88"/><rect x="58.18" y="27.15" width="3.88" height="3.88"/><rect x="58.18" y="23.27" width="3.88" height="3.88"/><rect x="58.18" y="19.39" width="3.88" height="3.88"/><rect x="58.18" y="15.52" width="3.88" height="3.87" fill="#ccc2c2"/><rect x="54.3" y="108.61" width="3.88" height="3.87" fill="#8e8888"/><rect x="54.3" y="104.73" width="3.88" height="3.88" fill="#8e8888"/><rect x="54.3" y="100.85" width="3.88" height="3.88" fill="#ccc2c2"/><rect x="54.3" y="96.97" width="3.88" height="3.88" fill="#ccc2c2"/><rect x="54.3" y="93.09" width="3.88" height="3.88" fill="#ccc2c2"/><rect x="54.3" y="89.21" width="3.88" height="3.88" fill="#ccc2c2"/><rect x="54.3" y="73.7" width="3.88" height="3.88" fill="#8e8888"/><rect x="54.3" y="69.82" width="3.88" height="3.88" fill="#8e8888"/><rect x="54.3" y="65.94" width="3.88" height="3.88"/><rect x="54.3" y="62.06" width="3.88" height="3.88"/><rect x="54.3" y="58.18" width="3.88" height="3.88"/><rect x="54.3" y="54.3" width="3.88" height="3.88"/><rect x="54.3" y="50.42" width="3.88" height="3.88"/><rect x="54.3" y="46.55" width="3.88" height="3.87"/><rect x="54.3" y="42.67" width="3.88" height="3.88"/><rect x="54.3" y="38.79" width="3.88" height="3.88"/><rect x="54.3" y="34.91" width="3.88" height="3.88"/><rect x="54.3" y="31.03" width="3.88" height="3.88"/><rect x="54.3" y="27.15" width="3.88" height="3.88"/><rect x="54.3" y="23.27" width="3.88" height="3.88"/><rect x="54.3" y="19.39" width="3.88" height="3.88"/><rect x="54.3" y="15.52" width="3.88" height="3.87" fill="#ccc2c2"/><rect x="50.42" y="108.61" width="3.88" height="3.87" fill="#8e8888"/><rect x="50.42" y="104.73" width="3.88" height="3.88" fill="#ccc2c2"/><rect x="50.42" y="100.85" width="3.88" height="3.88" fill="#8e8888"/><rect x="50.42" y="96.97" width="3.88" height="3.88" fill="#ccc2c2"/><rect x="50.42" y="93.09" width="3.88" height="3.88" fill="#8e8888"/><rect x="50.42" y="89.21" width="3.88" height="3.88" fill="#ccc2c2"/><rect x="50.42" y="69.82" width="3.88" height="3.88" fill="#8e8888"/><rect x="50.42" y="65.94" width="3.88" height="3.88"/><rect x="50.42" y="62.06" width="3.88" height="3.88"/><rect x="50.42" y="58.18" width="3.88" height="3.88"/><rect x="50.42" y="54.3" width="3.88" height="3.88"/><rect x="50.42" y="50.42" width="3.88" height="3.88"/><rect x="50.42" y="46.55" width="3.88" height="3.87"/><rect x="50.42" y="42.67" width="3.88" height="3.88"/><rect x="50.42" y="38.79" width="3.88" height="3.88"/><rect x="50.42" y="34.91" width="3.88" height="3.88"/><rect x="50.42" y="31.03" width="3.88" height="3.88"/><rect x="50.42" y="27.15" width="3.88" height="3.88"/><rect x="50.42" y="23.27" width="3.88" height="3.88"/><rect x="50.42" y="19.39" width="3.88" height="3.88"/><rect x="50.42" y="15.52" width="3.88" height="3.87" fill="#ccc2c2"/><rect x="46.55" y="108.61" width="3.87" height="3.87" fill="#8e8888"/><rect x="46.55" y="104.73" width="3.87" height="3.88" fill="#ccc2c2"/><rect x="46.55" y="100.85" width="3.87" height="3.88" fill="#ccc2c2"/><rect x="46.55" y="96.97" width="3.87" height="3.88" fill="#ccc2c2"/><rect x="46.55" y="93.09" width="3.87" height="3.88" fill="#ccc2c2"/><rect x="46.55" y="89.21" width="3.87" height="3.88" fill="#ccc2c2"/><rect x="46.55" y="69.82" width="3.87" height="3.88" fill="#8e8888"/><rect x="46.55" y="65.94" width="3.87" height="3.88"/><rect x="46.55" y="62.06" width="3.87" height="3.88"/><rect x="46.55" y="58.18" width="3.87" height="3.88"/><rect x="46.55" y="54.3" width="3.87" height="3.88"/><rect x="46.55" y="50.42" width="3.87" height="3.88"/><rect x="46.55" y="46.55" width="3.87" height="3.87"/><rect x="46.55" y="42.67" width="3.87" height="3.88"/><rect x="46.55" y="38.79" width="3.87" height="3.88"/><rect x="46.55" y="34.91" width="3.87" height="3.88"/><rect x="46.55" y="31.03" width="3.87" height="3.88"/><rect x="46.55" y="27.15" width="3.87" height="3.88"/><rect x="46.55" y="23.27" width="3.87" height="3.88"/><rect x="46.55" y="19.39" width="3.87" height="3.88" fill="#ccc2c2"/><rect x="46.55" y="15.52" width="3.87" height="3.87" fill="#ccc2c2"/><rect x="42.67" y="104.73" width="3.88" height="3.88" fill="#8e8888"/><rect x="42.67" y="100.85" width="3.88" height="3.88" fill="#ccc2c2"/><rect x="42.67" y="96.97" width="3.88" height="3.88" fill="#8e8888"/><rect x="42.67" y="93.09" width="3.88" height="3.88" fill="#8e8888"/><rect x="42.67" y="89.21" width="3.88" height="3.88" fill="#ccc2c2"/><rect x="42.67" y="85.33" width="3.88" height="3.88" fill="#ccc2c2"/><rect x="42.67" y="69.82" width="3.88" height="3.88" fill="#8e8888"/><rect x="42.67" y="65.94" width="3.88" height="3.88"/><rect x="42.67" y="62.06" width="3.88" height="3.88"/><rect x="42.67" y="58.18" width="3.88" height="3.88"/><rect x="42.67" y="54.3" width="3.88" height="3.88"/><rect x="42.67" y="50.42" width="3.88" height="3.88"/><rect x="42.67" y="46.55" width="3.88" height="3.87"/><rect x="42.67" y="42.67" width="3.88" height="3.88"/><rect x="42.67" y="38.79" width="3.88" height="3.88"/><rect x="42.67" y="34.91" width="3.88" height="3.88"/><rect x="42.67" y="31.03" width="3.88" height="3.88"/><rect x="42.67" y="27.15" width="3.88" height="3.88"/><rect x="42.67" y="23.27" width="3.88" height="3.88"/><rect x="42.67" y="19.39" width="3.88" height="3.88" fill="#ccc2c2"/><rect x="38.79" y="104.73" width="3.88" height="3.88" fill="#8e8888"/><rect x="38.79" y="100.85" width="3.88" height="3.88" fill="#ccc2c2"/><rect x="38.79" y="96.97" width="3.88" height="3.88" fill="#ccc2c2"/><rect x="38.79" y="93.09" width="3.88" height="3.88" fill="#8e8888"/><rect x="38.79" y="89.21" width="3.88" height="3.88" fill="#8e8888"/><rect x="38.79" y="85.33" width="3.88" height="3.88" fill="#ccc2c2"/><rect x="38.79" y="69.82" width="3.88" height="3.88" fill="#8e8888"/><rect x="38.79" y="65.94" width="3.88" height="3.88"/><rect x="38.79" y="62.06" width="3.88" height="3.88"/><rect x="38.79" y="58.18" width="3.88" height="3.88"/><rect x="38.79" y="54.3" width="3.88" height="3.88"/><rect x="38.79" y="50.42" width="3.88" height="3.88"/><rect x="38.79" y="46.55" width="3.88" height="3.87"/><rect x="38.79" y="42.67" width="3.88" height="3.88"/><rect x="38.79" y="38.79" width="3.88" height="3.88"/><rect x="38.79" y="34.91" width="3.88" height="3.88"/><rect x="38.79" y="31.03" width="3.88" height="3.88"/><rect x="38.79" y="27.15" width="3.88" height="3.88"/><rect x="38.79" y="23.27" width="3.88" height="3.88"/><rect x="38.79" y="19.39" width="3.88" height="3.88" fill="#ccc2c2"/><rect x="34.91" y="104.73" width="3.88" height="3.88" fill="#8e8888"/><rect x="34.91" y="100.85" width="3.88" height="3.88" fill="#ccc2c2"/><rect x="34.91" y="96.97" width="3.88" height="3.88" fill="#8e8888"/><rect x="34.91" y="93.09" width="3.88" height="3.88" fill="#ccc2c2"/><rect x="34.91" y="89.21" width="3.88" height="3.88" fill="#ccc2c2"/><rect x="34.91" y="85.33" width="3.88" height="3.88" fill="#ccc2c2"/><rect x="34.91" y="69.82" width="3.88" height="3.88" fill="#8e8888"/><rect x="34.91" y="65.94" width="3.88" height="3.88" fill="#8e8888"/><rect x="34.91" y="62.06" width="3.88" height="3.88" fill="#8e8888"/><rect x="34.91" y="58.18" width="3.88" height="3.88" fill="#8e8888"/><rect x="34.91" y="54.3" width="3.88" height="3.88" fill="#8e8888"/><rect x="34.91" y="50.42" width="3.88" height="3.88" fill="#8e8888"/><rect x="34.91" y="46.55" width="3.88" height="3.87" fill="#8e8888"/><rect x="34.91" y="42.67" width="3.88" height="3.88" fill="#8e8888"/><rect x="34.91" y="38.79" width="3.88" height="3.88" fill="#8e8888"/><rect x="34.91" y="34.91" width="3.88" height="3.88" fill="#8e8888"/><rect x="34.91" y="31.03" width="3.88" height="3.88" fill="#8e8888"/><rect x="34.91" y="27.15" width="3.88" height="3.88" fill="#8e8888"/><rect x="34.91" y="23.27" width="3.88" height="3.88" fill="#8e8888"/><rect x="34.91" y="19.39" width="3.88" height="3.88" fill="#ccc2c2"/><rect x="31.03" y="104.73" width="3.88" height="3.88" fill="#8e8888"/><rect x="31.03" y="100.85" width="3.88" height="3.88" fill="#ccc2c2"/><rect x="31.03" y="96.97" width="3.88" height="3.88" fill="#ccc2c2"/><rect x="31.03" y="93.09" width="3.88" height="3.88" fill="#8e8888"/><rect x="31.03" y="89.21" width="3.88" height="3.88" fill="#ccc2c2"/><rect x="27.15" y="104.73" width="3.88" height="3.88" fill="#8e8888"/><rect x="27.15" y="100.85" width="3.88" height="3.88" fill="#ccc2c2"/><rect x="27.15" y="96.97" width="3.88" height="3.88" fill="#8e8888"/><rect x="27.15" y="93.09" width="3.88" height="3.88" fill="#ccc2c2"/><rect x="27.15" y="89.21" width="3.88" height="3.88" fill="#ccc2c2"/><rect x="23.27" y="104.73" width="3.88" height="3.88" fill="#8e8888"/><rect x="23.27" y="100.85" width="3.88" height="3.88" fill="#ccc2c2"/><rect x="23.27" y="96.97" width="3.88" height="3.88" fill="#ccc2c2"/><rect x="23.27" y="93.09" width="3.88" height="3.88" fill="#ccc2c2"/><rect x="19.39" y="100.85" width="3.88" height="3.88" fill="#8e8888"/><rect x="19.39" y="96.97" width="3.88" height="3.88" fill="#ccc2c2"/><rect x="15.52" y="100.85" width="3.87" height="3.88" fill="#8e8888"/><rect x="15.52" y="96.97" width="3.87" height="3.88" fill="#ccc2c2"/></svg>