<svg id="a5362552-1d2e-443a-b79f-97f47888f5e9" data-name="Layer 1" xmlns="http://www.w3.org/2000/svg" viewBox="0 0 128 128"><rect x="27.15" y="50.42" width="3.88" height="3.88" fill="#dd1212"/><rect x="27.15" y="54.3" width="3.88" height="3.88" fill="#dd1212"/><rect x="11.64" y="42.67" width="3.88" height="3.88" fill="#dd1212"/><rect x="11.64" y="38.79" width="3.88" height="3.88" fill="#eaca0c"/><rect x="11.64" y="19.39" width="3.88" height="3.88" fill="#dd1212"/><rect x="11.64" y="23.27" width="3.88" height="3.88" fill="#eaca0c"/><rect x="27.15" y="11.64" width="3.88" height="3.88" fill="#dd1212"/><rect x="27.15" y="7.76" width="3.88" height="3.88" fill="#eaca0c"/><rect x="42.67" y="11.64" width="3.88" height="3.88" fill="#dd1212"/><rect x="42.67" y="7.76" width="3.88" height="3.88" fill="#eaca0c"/><rect x="124.12" y="116.36" width="3.88" height="3.88" fill="#ccc2c2"/><rect x="124.12" y="100.85" width="3.88" height="3.88" fill="#dd1212"/><rect x="124.12" y="85.33" width="3.88" height="3.88" fill="#dd1212"/><rect x="124.12" y="69.82" width="3.88" height="3.88" fill="#ccc2c2"/><rect x="124.12" y="54.3" width="3.88" height="3.88" fill="#ccc2c2"/><rect x="124.12" y="38.79" width="3.88" height="3.88" fill="#dd1212"/><rect x="124.12" y="23.27" width="3.88" height="3.88" fill="#dd1212"/><rect x="124.12" y="7.76" width="3.88" height="3.88" fill="#ccc2c2"/><rect x="120.24" y="124.12" width="3.88" height="3.88" fill="#ccc2c2"/><rect x="120.24" y="120.24" width="3.88" height="3.88" fill="#ccc2c2"/><rect x="120.24" y="104.73" width="3.88" height="3.88" fill="#dd1212"/><rect x="120.24" y="100.85" width="3.88" height="3.88" fill="#eaca0c"/><rect x="120.24" y="96.97" width="3.88" height="3.88" fill="#dd1212"/><rect x="120.24" y="93.09" width="3.88" height="3.88" fill="#ccc2c2"/><rect x="120.24" y="89.21" width="3.88" height="3.88" fill="#dd1212"/><rect x="120.24" y="85.33" width="3.88" height="3.88" fill="#eaca0c"/><rect x="120.24" y="81.45" width="3.88" height="3.88" fill="#dd1212"/><rect x="120.24" y="65.94" width="3.88" height="3.88" fill="#ccc2c2"/><rect x="120.24" y="62.06" width="3.88" height="3.88" fill="#ccc2c2"/><rect x="120.24" y="58.18" width="3.88" height="3.88" fill="#ccc2c2"/><rect x="120.24" y="42.67" width="3.88" height="3.88" fill="#dd1212"/><rect x="120.24" y="38.79" width="3.88" height="3.88" fill="#eaca0c"/><rect x="120.24" y="34.91" width="3.88" height="3.88" fill="#dd1212"/><rect x="120.24" y="31.03" width="3.88" height="3.88" fill="#ccc2c2"/><rect x="120.24" y="27.15" width="3.88" height="3.88" fill="#dd1212"/><rect x="120.24" y="23.27" width="3.88" height="3.88" fill="#eaca0c"/><rect x="120.24" y="19.39" width="3.88" height="3.88" fill="#dd1212"/><rect x="120.24" y="3.88" width="3.88" height="3.88" fill="#ccc2c2"/><rect x="120.24" width="3.88" height="3.88" fill="#ccc2c2"/><rect x="116.36" y="116.36" width="3.88" height="3.88" fill="#ccc2c2"/><rect x="116.36" y="100.85" width="3.88" height="3.88" fill="#dd1212"/><rect x="116.36" y="85.33" width="3.88" height="3.88" fill="#dd1212"/><rect x="116.36" y="69.82" width="3.88" height="3.88" fill="#ccc2c2"/><rect x="116.36" y="54.3" width="3.88" height="3.88" fill="#ccc2c2"/><rect x="116.36" y="38.79" width="3.88" height="3.88" fill="#dd1212"/><rect x="116.36" y="23.27" width="3.88" height="3.88" fill="#dd1212"/><rect x="116.36" y="7.76" width="3.88" height="3.88" fill="#ccc2c2"/><rect x="112.48" y="112.48" width="3.88" height="3.88" fill="#ccc2c2"/><rect x="112.48" y="108.61" width="3.88" height="3.87" fill="#ccc2c2"/><rect x="112.48" y="104.73" width="3.88" height="3.88" fill="#ccc2c2"/><rect x="112.48" y="81.45" width="3.88" height="3.88" fill="#ccc2c2"/><rect x="112.48" y="77.58" width="3.88" height="3.87" fill="#ccc2c2"/><rect x="112.48" y="73.7" width="3.88" height="3.88" fill="#ccc2c2"/><rect x="112.48" y="50.42" width="3.88" height="3.88" fill="#ccc2c2"/><rect x="112.48" y="46.55" width="3.88" height="3.87" fill="#ccc2c2"/><rect x="112.48" y="42.67" width="3.88" height="3.88" fill="#ccc2c2"/><rect x="112.48" y="19.39" width="3.88" height="3.88" fill="#ccc2c2"/><rect x="112.48" y="15.52" width="3.88" height="3.87" fill="#ccc2c2"/><rect x="112.48" y="11.64" width="3.88" height="3.88" fill="#ccc2c2"/><rect x="108.61" y="116.36" width="3.87" height="3.88" fill="#dd1212"/><rect x="108.61" y="100.85" width="3.87" height="3.88" fill="#ccc2c2"/><rect x="108.61" y="85.33" width="3.87" height="3.88" fill="#ccc2c2"/><rect x="108.61" y="69.82" width="3.87" height="3.88" fill="#dd1212"/><rect x="108.61" y="54.3" width="3.87" height="3.88" fill="#dd1212"/><rect x="108.61" y="38.79" width="3.87" height="3.88" fill="#ccc2c2"/><rect x="108.61" y="23.27" width="3.87" height="3.88" fill="#ccc2c2"/><rect x="108.61" y="7.76" width="3.87" height="3.88" fill="#dd1212"/><rect x="104.73" y="124.12" width="3.88" height="3.88" fill="#ccc2c2"/><rect x="104.73" y="120.24" width="3.88" height="3.88" fill="#dd1212"/><rect x="104.73" y="116.36" width="3.88" height="3.88" fill="#eaca0c"/><rect x="104.73" y="112.48" width="3.88" height="3.88" fill="#dd1212"/><rect x="104.73" y="96.97" width="3.88" height="3.88" fill="#ccc2c2"/><rect x="104.73" y="93.09" width="3.88" height="3.88" fill="#ccc2c2"/><rect x="104.73" y="89.21" width="3.88" height="3.88" fill="#ccc2c2"/><rect x="104.73" y="73.7" width="3.88" height="3.88" fill="#dd1212"/><rect x="104.73" y="69.82" width="3.88" height="3.88" fill="#eaca0c"/><rect x="104.73" y="65.94" width="3.88" height="3.88" fill="#dd1212"/><rect x="104.73" y="62.06" width="3.88" height="3.88" fill="#ccc2c2"/><rect x="104.73" y="58.18" width="3.88" height="3.88" fill="#dd1212"/><rect x="104.73" y="54.3" width="3.88" height="3.88" fill="#eaca0c"/><rect x="104.73" y="50.42" width="3.88" height="3.88" fill="#dd1212"/><rect x="104.73" y="34.91" width="3.88" height="3.88" fill="#ccc2c2"/><rect x="104.73" y="31.03" width="3.88" height="3.88" fill="#ccc2c2"/><rect x="104.73" y="27.15" width="3.88" height="3.88" fill="#ccc2c2"/><rect x="104.73" y="11.64" width="3.88" height="3.88" fill="#dd1212"/><rect x="104.73" y="7.76" width="3.88" height="3.88" fill="#eaca0c"/><rect x="104.73" y="3.88" width="3.88" height="3.88" fill="#dd1212"/><rect x="104.73" width="3.88" height="3.88" fill="#ccc2c2"/><rect x="100.85" y="116.36" width="3.88" height="3.88" fill="#dd1212"/><rect x="100.85" y="100.85" width="3.88" height="3.88" fill="#ccc2c2"/><rect x="100.85" y="85.33" width="3.88" height="3.88" fill="#ccc2c2"/><rect x="100.85" y="69.82" width="3.88" height="3.88" fill="#dd1212"/><rect x="100.85" y="54.3" width="3.88" height="3.88" fill="#dd1212"/><rect x="100.85" y="38.79" width="3.88" height="3.88" fill="#ccc2c2"/><rect x="100.85" y="23.27" width="3.88" height="3.88" fill="#ccc2c2"/><rect x="100.85" y="7.76" width="3.88" height="3.88" fill="#dd1212"/><rect x="96.97" y="112.48" width="3.88" height="3.88" fill="#ccc2c2"/><rect x="96.97" y="108.61" width="3.88" height="3.87" fill="#ccc2c2"/><rect x="96.97" y="104.73" width="3.88" height="3.88" fill="#ccc2c2"/><rect x="96.97" y="81.45" width="3.88" height="3.88" fill="#ccc2c2"/><rect x="96.97" y="77.58" width="3.88" height="3.87" fill="#ccc2c2"/><rect x="96.97" y="73.7" width="3.88" height="3.88" fill="#ccc2c2"/><rect x="96.97" y="50.42" width="3.88" height="3.88" fill="#ccc2c2"/><rect x="96.97" y="46.55" width="3.88" height="3.87" fill="#ccc2c2"/><rect x="96.97" y="42.67" width="3.88" height="3.88" fill="#ccc2c2"/><rect x="96.97" y="19.39" width="3.88" height="3.88" fill="#ccc2c2"/><rect x="96.97" y="15.52" width="3.88" height="3.87" fill="#ccc2c2"/><rect x="96.97" y="11.64" width="3.88" height="3.88" fill="#ccc2c2"/><rect x="93.09" y="116.36" width="3.88" height="3.88" fill="#dd1212"/><rect x="93.09" y="100.85" width="3.88" height="3.88" fill="#ccc2c2"/><rect x="93.09" y="85.33" width="3.88" height="3.88" fill="#ccc2c2"/><rect x="93.09" y="69.82" width="3.88" height="3.88" fill="#dd1212"/><rect x="93.09" y="54.3" width="3.88" height="3.88" fill="#dd1212"/><rect x="93.09" y="38.79" width="3.88" height="3.88" fill="#ccc2c2"/><rect x="93.09" y="23.27" width="3.88" height="3.88" fill="#ccc2c2"/><rect x="93.09" y="7.76" width="3.88" height="3.88" fill="#dd1212"/><rect x="89.21" y="124.12" width="3.88" height="3.88" fill="#ccc2c2"/><rect x="89.21" y="120.24" width="3.88" height="3.88" fill="#dd1212"/><rect x="89.21" y="116.36" width="3.88" height="3.88" fill="#eaca0c"/><rect x="89.21" y="112.48" width="3.88" height="3.88" fill="#dd1212"/><rect x="89.21" y="96.97" width="3.88" height="3.88" fill="#ccc2c2"/><rect x="89.21" y="93.09" width="3.88" height="3.88" fill="#ccc2c2"/><rect x="89.21" y="89.21" width="3.88" height="3.88" fill="#ccc2c2"/><rect x="89.21" y="73.7" width="3.88" height="3.88" fill="#dd1212"/><rect x="89.21" y="69.82" width="3.88" height="3.88" fill="#eaca0c"/><rect x="89.21" y="65.94" width="3.88" height="3.88" fill="#dd1212"/><rect x="89.21" y="62.06" width="3.88" height="3.88" fill="#ccc2c2"/><rect x="89.21" y="58.18" width="3.88" height="3.88" fill="#dd1212"/><rect x="89.21" y="54.3" width="3.88" height="3.88" fill="#eaca0c"/><rect x="89.21" y="50.42" width="3.88" height="3.88" fill="#dd1212"/><rect x="89.21" y="34.91" width="3.88" height="3.88" fill="#ccc2c2"/><rect x="89.21" y="31.03" width="3.88" height="3.88" fill="#ccc2c2"/><rect x="89.21" y="27.15" width="3.88" height="3.88" fill="#ccc2c2"/><rect x="89.21" y="11.64" width="3.88" height="3.88" fill="#dd1212"/><rect x="89.21" y="7.76" width="3.88" height="3.88" fill="#eaca0c"/><rect x="89.21" y="3.88" width="3.88" height="3.88" fill="#dd1212"/><rect x="89.21" width="3.88" height="3.88" fill="#ccc2c2"/><rect x="85.33" y="116.36" width="3.88" height="3.88" fill="#dd1212"/><rect x="85.33" y="100.85" width="3.88" height="3.88" fill="#ccc2c2"/><rect x="85.33" y="85.33" width="3.88" height="3.88" fill="#ccc2c2"/><rect x="85.33" y="69.82" width="3.88" height="3.88" fill="#dd1212"/><rect x="85.33" y="54.3" width="3.88" height="3.88" fill="#dd1212"/><rect x="85.33" y="38.79" width="3.88" height="3.88" fill="#ccc2c2"/><rect x="85.33" y="23.27" width="3.88" height="3.88" fill="#ccc2c2"/><rect x="85.33" y="7.76" width="3.88" height="3.88" fill="#dd1212"/><rect x="81.45" y="112.48" width="3.88" height="3.88" fill="#ccc2c2"/><rect x="81.45" y="108.61" width="3.88" height="3.87" fill="#ccc2c2"/><rect x="81.45" y="104.73" width="3.88" height="3.88" fill="#ccc2c2"/><rect x="81.45" y="81.45" width="3.88" height="3.88" fill="#ccc2c2"/><rect x="81.45" y="77.58" width="3.88" height="3.87" fill="#ccc2c2"/><rect x="81.45" y="73.7" width="3.88" height="3.88" fill="#ccc2c2"/><rect x="81.45" y="50.42" width="3.88" height="3.88" fill="#ccc2c2"/><rect x="81.45" y="46.55" width="3.88" height="3.87" fill="#ccc2c2"/><rect x="81.45" y="42.67" width="3.88" height="3.88" fill="#ccc2c2"/><rect x="81.45" y="19.39" width="3.88" height="3.88" fill="#ccc2c2"/><rect x="81.45" y="15.52" width="3.88" height="3.87" fill="#ccc2c2"/><rect x="81.45" y="11.64" width="3.88" height="3.88" fill="#ccc2c2"/><rect x="77.58" y="116.36" width="3.87" height="3.88" fill="#ccc2c2"/><rect x="77.58" y="100.85" width="3.87" height="3.88" fill="#dd1212"/><rect x="77.58" y="85.33" width="3.87" height="3.88" fill="#dd1212"/><rect x="77.58" y="69.82" width="3.87" height="3.88" fill="#ccc2c2"/><rect x="77.58" y="54.3" width="3.87" height="3.88" fill="#ccc2c2"/><rect x="77.58" y="38.79" width="3.87" height="3.88" fill="#dd1212"/><rect x="77.58" y="23.27" width="3.87" height="3.88" fill="#dd1212"/><rect x="77.58" y="7.76" width="3.87" height="3.88" fill="#ccc2c2"/><rect x="73.7" y="124.12" width="3.88" height="3.88" fill="#ccc2c2"/><rect x="73.7" y="120.24" width="3.88" height="3.88" fill="#ccc2c2"/><rect x="73.7" y="104.73" width="3.88" height="3.88" fill="#dd1212"/><rect x="73.7" y="100.85" width="3.88" height="3.88" fill="#eaca0c"/><rect x="73.7" y="96.97" width="3.88" height="3.88" fill="#dd1212"/><rect x="73.7" y="93.09" width="3.88" height="3.88" fill="#ccc2c2"/><rect x="73.7" y="89.21" width="3.88" height="3.88" fill="#dd1212"/><rect x="73.7" y="85.33" width="3.88" height="3.88" fill="#eaca0c"/><rect x="73.7" y="81.45" width="3.88" height="3.88" fill="#dd1212"/><rect x="73.7" y="65.94" width="3.88" height="3.88" fill="#ccc2c2"/><rect x="73.7" y="62.06" width="3.88" height="3.88" fill="#ccc2c2"/><rect x="73.7" y="58.18" width="3.88" height="3.88" fill="#ccc2c2"/><rect x="73.7" y="42.67" width="3.88" height="3.88" fill="#dd1212"/><rect x="73.7" y="38.79" width="3.88" height="3.88" fill="#eaca0c"/><rect x="73.7" y="34.91" width="3.88" height="3.88" fill="#dd1212"/><rect x="73.7" y="31.03" width="3.88" height="3.88" fill="#ccc2c2"/><rect x="73.7" y="27.15" width="3.88" height="3.88" fill="#dd1212"/><rect x="73.7" y="23.27" width="3.88" height="3.88" fill="#eaca0c"/><rect x="73.7" y="19.39" width="3.88" height="3.88" fill="#dd1212"/><rect x="73.7" y="3.88" width="3.88" height="3.88" fill="#ccc2c2"/><rect x="73.7" width="3.88" height="3.88" fill="#ccc2c2"/><rect x="69.82" y="116.36" width="3.88" height="3.88" fill="#ccc2c2"/><rect x="69.82" y="100.85" width="3.88" height="3.88" fill="#dd1212"/><rect x="69.82" y="85.33" width="3.88" height="3.88" fill="#dd1212"/><rect x="69.82" y="69.82" width="3.88" height="3.88" fill="#ccc2c2"/><rect x="69.82" y="54.3" width="3.88" height="3.88" fill="#ccc2c2"/><rect x="69.82" y="38.79" width="3.88" height="3.88" fill="#dd1212"/><rect x="69.82" y="23.27" width="3.88" height="3.88" fill="#dd1212"/><rect x="69.82" y="7.76" width="3.88" height="3.88" fill="#ccc2c2"/><rect x="65.94" y="112.48" width="3.88" height="3.88" fill="#ccc2c2"/><rect x="65.94" y="108.61" width="3.88" height="3.87" fill="#ccc2c2"/><rect x="65.94" y="104.73" width="3.88" height="3.88" fill="#ccc2c2"/><rect x="65.94" y="81.45" width="3.88" height="3.88" fill="#ccc2c2"/><rect x="65.94" y="77.58" width="3.88" height="3.87" fill="#ccc2c2"/><rect x="65.94" y="73.7" width="3.88" height="3.88" fill="#ccc2c2"/><rect x="65.94" y="50.42" width="3.88" height="3.88" fill="#ccc2c2"/><rect x="65.94" y="46.55" width="3.88" height="3.87" fill="#ccc2c2"/><rect x="65.94" y="42.67" width="3.88" height="3.88" fill="#ccc2c2"/><rect x="65.94" y="19.39" width="3.88" height="3.88" fill="#ccc2c2"/><rect x="65.94" y="15.52" width="3.88" height="3.87" fill="#ccc2c2"/><rect x="65.94" y="11.64" width="3.88" height="3.88" fill="#ccc2c2"/><rect x="62.06" y="116.36" width="3.88" height="3.88" fill="#ccc2c2"/><rect x="62.06" y="100.85" width="3.88" height="3.88" fill="#dd1212"/><rect x="62.06" y="85.33" width="3.88" height="3.88" fill="#dd1212"/><rect x="62.06" y="69.82" width="3.88" height="3.88" fill="#ccc2c2"/><rect x="62.06" y="54.3" width="3.88" height="3.88" fill="#ccc2c2"/><rect x="62.06" y="38.79" width="3.88" height="3.88" fill="#dd1212"/><rect x="62.06" y="23.27" width="3.88" height="3.88" fill="#dd1212"/><rect x="62.06" y="7.76" width="3.88" height="3.88" fill="#ccc2c2"/><rect x="58.18" y="124.12" width="3.88" height="3.88" fill="#ccc2c2"/><rect x="58.18" y="120.24" width="3.88" height="3.88" fill="#ccc2c2"/><rect x="58.18" y="104.73" width="3.88" height="3.88" fill="#dd1212"/><rect x="58.18" y="100.85" width="3.88" height="3.88" fill="#eaca0c"/><rect x="58.18" y="96.97" width="3.88" height="3.88" fill="#dd1212"/><rect x="58.18" y="93.09" width="3.88" height="3.88" fill="#ccc2c2"/><rect x="58.18" y="89.21" width="3.88" height="3.88" fill="#dd1212"/><rect x="58.18" y="85.33" width="3.88" height="3.88" fill="#eaca0c"/><rect x="58.18" y="81.45" width="3.88" height="3.88" fill="#dd1212"/><rect x="58.18" y="65.94" width="3.88" height="3.88" fill="#ccc2c2"/><rect x="58.18" y="62.06" width="3.88" height="3.88" fill="#ccc2c2"/><rect x="58.18" y="58.18" width="3.88" height="3.88" fill="#ccc2c2"/><rect x="58.18" y="42.67" width="3.88" height="3.88" fill="#dd1212"/><rect x="58.18" y="38.79" width="3.88" height="3.88" fill="#eaca0c"/><rect x="58.18" y="34.91" width="3.88" height="3.88" fill="#dd1212"/><rect x="58.18" y="31.03" width="3.88" height="3.88" fill="#ccc2c2"/><rect x="58.18" y="27.15" width="3.88" height="3.88" fill="#dd1212"/><rect x="58.18" y="23.27" width="3.88" height="3.88" fill="#eaca0c"/><rect x="58.18" y="19.39" width="3.88" height="3.88" fill="#dd1212"/><rect x="58.18" y="3.88" width="3.88" height="3.88" fill="#ccc2c2"/><rect x="58.18" width="3.88" height="3.88" fill="#ccc2c2"/><rect x="54.3" y="116.36" width="3.88" height="3.88" fill="#ccc2c2"/><rect x="54.3" y="100.85" width="3.88" height="3.88" fill="#dd1212"/><rect x="54.3" y="85.33" width="3.88" height="3.88" fill="#dd1212"/><rect x="54.3" y="69.82" width="3.88" height="3.88" fill="#ccc2c2"/><rect x="54.3" y="54.3" width="3.88" height="3.88" fill="#ccc2c2"/><rect x="54.3" y="38.79" width="3.88" height="3.88" fill="#dd1212"/><rect x="54.3" y="23.27" width="3.88" height="3.88" fill="#dd1212"/><rect x="54.3" y="7.76" width="3.88" height="3.88" fill="#ccc2c2"/><rect x="50.42" y="112.48" width="3.88" height="3.88" fill="#ccc2c2"/><rect x="50.42" y="108.61" width="3.88" height="3.87" fill="#ccc2c2"/><rect x="50.42" y="104.73" width="3.88" height="3.88" fill="#ccc2c2"/><rect x="50.42" y="81.45" width="3.88" height="3.88" fill="#ccc2c2"/><rect x="50.42" y="77.58" width="3.88" height="3.87" fill="#ccc2c2"/><rect x="50.42" y="73.7" width="3.88" height="3.88" fill="#ccc2c2"/><rect x="50.42" y="50.42" width="3.88" height="3.88" fill="#ccc2c2"/><rect x="50.42" y="46.55" width="3.88" height="3.87" fill="#ccc2c2"/><rect x="50.42" y="42.67" width="3.88" height="3.88" fill="#ccc2c2"/><rect x="50.42" y="19.39" width="3.88" height="3.88" fill="#ccc2c2"/><rect x="50.42" y="15.52" width="3.88" height="3.87" fill="#ccc2c2"/><rect x="50.42" y="11.64" width="3.88" height="3.88" fill="#ccc2c2"/><rect x="46.55" y="116.36" width="3.87" height="3.88" fill="#dd1212"/><rect x="46.55" y="100.85" width="3.87" height="3.88" fill="#ccc2c2"/><rect x="46.55" y="85.33" width="3.87" height="3.88" fill="#ccc2c2"/><rect x="46.55" y="69.82" width="3.87" height="3.88" fill="#dd1212"/><rect x="46.55" y="54.3" width="3.87" height="3.88" fill="#dd1212"/><rect x="46.55" y="38.79" width="3.87" height="3.88" fill="#ccc2c2"/><rect x="46.55" y="23.27" width="3.87" height="3.88" fill="#ccc2c2"/><rect x="46.55" y="7.76" width="3.87" height="3.88" fill="#dd1212"/><rect x="42.67" y="124.12" width="3.88" height="3.88" fill="#ccc2c2"/><rect x="42.67" y="120.24" width="3.88" height="3.88" fill="#dd1212"/><rect x="42.67" y="116.36" width="3.88" height="3.88" fill="#eaca0c"/><rect x="42.67" y="112.48" width="3.88" height="3.88" fill="#dd1212"/><rect x="42.67" y="96.97" width="3.88" height="3.88" fill="#ccc2c2"/><rect x="42.67" y="93.09" width="3.88" height="3.88" fill="#ccc2c2"/><rect x="42.67" y="89.21" width="3.88" height="3.88" fill="#ccc2c2"/><rect x="42.67" y="73.7" width="3.88" height="3.88" fill="#dd1212"/><rect x="42.67" y="69.82" width="3.88" height="3.88" fill="#eaca0c"/><rect x="42.67" y="65.94" width="3.88" height="3.88" fill="#dd1212"/><rect x="42.67" y="62.06" width="3.88" height="3.88" fill="#ccc2c2"/><rect x="42.67" y="58.18" width="3.88" height="3.88" fill="#dd1212"/><rect x="42.67" y="54.3" width="3.88" height="3.88" fill="#eaca0c"/><rect x="42.67" y="50.42" width="3.88" height="3.88" fill="#dd1212"/><rect x="42.67" y="34.91" width="3.88" height="3.88" fill="#ccc2c2"/><rect x="42.67" y="31.03" width="3.88" height="3.88" fill="#ccc2c2"/><rect x="42.67" y="27.15" width="3.88" height="3.88" fill="#ccc2c2"/><rect x="42.67" y="3.88" width="3.88" height="3.88" fill="#dd1212"/><rect x="42.67" width="3.88" height="3.88" fill="#ccc2c2"/><rect x="38.79" y="116.36" width="3.88" height="3.88" fill="#dd1212"/><rect x="38.79" y="100.85" width="3.88" height="3.88" fill="#ccc2c2"/><rect x="38.79" y="85.33" width="3.88" height="3.88" fill="#ccc2c2"/><rect x="38.79" y="69.82" width="3.88" height="3.88" fill="#dd1212"/><rect x="38.79" y="54.3" width="3.88" height="3.88" fill="#dd1212"/><rect x="38.79" y="38.79" width="3.88" height="3.88" fill="#ccc2c2"/><rect x="38.79" y="23.27" width="3.88" height="3.88" fill="#ccc2c2"/><rect x="38.79" y="7.76" width="3.88" height="3.88" fill="#dd1212"/><rect x="34.91" y="112.48" width="3.88" height="3.88" fill="#ccc2c2"/><rect x="34.91" y="108.61" width="3.88" height="3.87" fill="#ccc2c2"/><rect x="34.91" y="104.73" width="3.88" height="3.88" fill="#ccc2c2"/><rect x="34.91" y="81.45" width="3.88" height="3.88" fill="#ccc2c2"/><rect x="34.91" y="77.58" width="3.88" height="3.87" fill="#ccc2c2"/><rect x="34.91" y="73.7" width="3.88" height="3.88" fill="#ccc2c2"/><rect x="34.91" y="50.42" width="3.88" height="3.88" fill="#ccc2c2"/><rect x="34.91" y="46.55" width="3.88" height="3.87" fill="#ccc2c2"/><rect x="34.91" y="42.67" width="3.88" height="3.88" fill="#ccc2c2"/><rect x="34.91" y="19.39" width="3.88" height="3.88" fill="#ccc2c2"/><rect x="34.91" y="15.52" width="3.88" height="3.87" fill="#ccc2c2"/><rect x="34.91" y="11.64" width="3.88" height="3.88" fill="#ccc2c2"/><rect x="31.03" y="116.36" width="3.88" height="3.88" fill="#dd1212"/><rect x="31.03" y="100.85" width="3.88" height="3.88" fill="#ccc2c2"/><rect x="31.03" y="85.33" width="3.88" height="3.88" fill="#ccc2c2"/><rect x="31.03" y="69.82" width="3.88" height="3.88" fill="#dd1212"/><rect x="31.03" y="54.3" width="3.88" height="3.88" fill="#dd1212"/><rect x="31.03" y="38.79" width="3.88" height="3.88" fill="#ccc2c2"/><rect x="31.03" y="23.27" width="3.88" height="3.88" fill="#ccc2c2"/><rect x="31.03" y="7.76" width="3.88" height="3.88" fill="#dd1212"/><rect x="27.15" y="124.12" width="3.88" height="3.88" fill="#ccc2c2"/><rect x="27.15" y="120.24" width="3.88" height="3.88" fill="#dd1212"/><rect x="27.15" y="116.36" width="3.88" height="3.88" fill="#eaca0c"/><rect x="27.15" y="112.48" width="3.88" height="3.88" fill="#dd1212"/><rect x="27.15" y="96.97" width="3.88" height="3.88" fill="#ccc2c2"/><rect x="27.15" y="93.09" width="3.88" height="3.88" fill="#ccc2c2"/><rect x="27.15" y="89.21" width="3.88" height="3.88" fill="#ccc2c2"/><rect x="27.15" y="73.7" width="3.88" height="3.88" fill="#dd1212"/><rect x="27.15" y="69.82" width="3.88" height="3.88" fill="#eaca0c"/><rect x="27.15" y="65.94" width="3.88" height="3.88" fill="#dd1212"/><rect x="27.15" y="62.06" width="3.88" height="3.88" fill="#ccc2c2"/><rect x="27.15" y="58.18" width="3.88" height="3.88" fill="#dd1212"/><rect x="27.15" y="34.91" width="3.88" height="3.88" fill="#ccc2c2"/><rect x="27.15" y="31.03" width="3.88" height="3.88" fill="#ccc2c2"/><rect x="27.15" y="27.15" width="3.88" height="3.88" fill="#ccc2c2"/><rect x="27.15" y="3.88" width="3.88" height="3.88" fill="#dd1212"/><rect x="27.15" width="3.88" height="3.88" fill="#ccc2c2"/><rect x="23.27" y="116.36" width="3.88" height="3.88" fill="#dd1212"/><rect x="23.27" y="100.85" width="3.88" height="3.88" fill="#ccc2c2"/><rect x="23.27" y="85.33" width="3.88" height="3.88" fill="#ccc2c2"/><rect x="23.27" y="73.7" width="3.88" height="3.88" fill="#fff"/><rect x="23.27" y="69.82" width="3.88" height="3.88" fill="#dd1212"/><rect x="23.27" y="54.3" width="3.88" height="3.88" fill="#dd1212"/><rect x="23.27" y="38.79" width="3.88" height="3.88" fill="#ccc2c2"/><rect x="23.27" y="23.27" width="3.88" height="3.88" fill="#ccc2c2"/><rect x="23.27" y="7.76" width="3.88" height="3.88" fill="#dd1212"/><rect x="19.39" y="112.48" width="3.88" height="3.88" fill="#ccc2c2"/><rect x="19.39" y="108.61" width="3.88" height="3.87" fill="#ccc2c2"/><rect x="19.39" y="104.73" width="3.88" height="3.88" fill="#ccc2c2"/><rect x="19.39" y="81.45" width="3.88" height="3.88" fill="#ccc2c2"/><rect x="19.39" y="77.58" width="3.88" height="3.87" fill="#ccc2c2"/><rect x="19.39" y="73.7" width="3.88" height="3.88" fill="#ccc2c2"/><rect x="19.39" y="50.42" width="3.88" height="3.88" fill="#ccc2c2"/><rect x="19.39" y="46.55" width="3.88" height="3.87" fill="#ccc2c2"/><rect x="19.39" y="42.67" width="3.88" height="3.88" fill="#ccc2c2"/><rect x="19.39" y="19.39" width="3.88" height="3.88" fill="#ccc2c2"/><rect x="19.39" y="15.52" width="3.88" height="3.87" fill="#ccc2c2"/><rect x="19.39" y="11.64" width="3.88" height="3.88" fill="#ccc2c2"/><rect x="15.52" y="116.36" width="3.87" height="3.88" fill="#ccc2c2"/><rect x="15.52" y="100.85" width="3.87" height="3.88" fill="#dd1212"/><rect x="15.52" y="85.33" width="3.87" height="3.88" fill="#dd1212"/><rect x="15.52" y="69.82" width="3.87" height="3.88" fill="#ccc2c2"/><rect x="15.52" y="54.3" width="3.87" height="3.88" fill="#ccc2c2"/><rect x="15.52" y="38.79" width="3.87" height="3.88" fill="#dd1212"/><rect x="15.52" y="23.27" width="3.87" height="3.88" fill="#dd1212"/><rect x="15.52" y="7.76" width="3.87" height="3.88" fill="#ccc2c2"/><rect x="11.64" y="124.12" width="3.88" height="3.88" fill="#ccc2c2"/><rect x="11.64" y="120.24" width="3.88" height="3.88" fill="#ccc2c2"/><rect x="11.64" y="104.73" width="3.88" height="3.88" fill="#dd1212"/><rect x="11.64" y="100.85" width="3.88" height="3.88" fill="#eaca0c"/><rect x="11.64" y="96.97" width="3.88" height="3.88" fill="#dd1212"/><rect x="11.64" y="93.09" width="3.88" height="3.88" fill="#ccc2c2"/><rect x="11.64" y="89.21" width="3.88" height="3.88" fill="#dd1212"/><rect x="11.64" y="85.33" width="3.88" height="3.88" fill="#eaca0c"/><rect x="11.64" y="81.45" width="3.88" height="3.88" fill="#dd1212"/><rect x="11.64" y="73.7" width="3.88" height="3.88" fill="#fff"/><rect x="11.64" y="65.94" width="3.88" height="3.88" fill="#ccc2c2"/><rect x="11.64" y="62.06" width="3.88" height="3.88" fill="#ccc2c2"/><rect x="11.64" y="58.18" width="3.88" height="3.88" fill="#ccc2c2"/><rect x="11.64" y="34.91" width="3.88" height="3.88" fill="#dd1212"/><rect x="11.64" y="31.03" width="3.88" height="3.88" fill="#ccc2c2"/><rect x="11.64" y="27.15" width="3.88" height="3.88" fill="#dd1212"/><rect x="11.64" y="3.88" width="3.88" height="3.88" fill="#ccc2c2"/><rect x="11.64" width="3.88" height="3.88" fill="#ccc2c2"/><rect x="7.76" y="116.36" width="3.88" height="3.88" fill="#ccc2c2"/><rect x="7.76" y="100.85" width="3.88" height="3.88" fill="#dd1212"/><rect x="7.76" y="85.33" width="3.88" height="3.88" fill="#dd1212"/><rect x="7.76" y="69.82" width="3.88" height="3.88" fill="#ccc2c2"/><rect x="7.76" y="54.3" width="3.88" height="3.88" fill="#ccc2c2"/><rect x="7.76" y="38.79" width="3.88" height="3.88" fill="#dd1212"/><rect x="7.76" y="23.27" width="3.88" height="3.88" fill="#dd1212"/><rect x="7.76" y="7.76" width="3.88" height="3.88" fill="#ccc2c2"/><rect x="3.88" y="112.48" width="3.88" height="3.88" fill="#ccc2c2"/><rect x="3.88" y="108.61" width="3.88" height="3.87" fill="#ccc2c2"/><rect x="3.88" y="104.73" width="3.88" height="3.88" fill="#ccc2c2"/><rect x="3.88" y="81.45" width="3.88" height="3.88" fill="#ccc2c2"/><rect x="3.88" y="77.58" width="3.88" height="3.87" fill="#ccc2c2"/><rect x="3.88" y="73.7" width="3.88" height="3.88" fill="#ccc2c2"/><rect x="3.88" y="50.42" width="3.88" height="3.88" fill="#ccc2c2"/><rect x="3.88" y="46.55" width="3.88" height="3.87" fill="#ccc2c2"/><rect x="3.88" y="42.67" width="3.88" height="3.88" fill="#ccc2c2"/><rect x="3.88" y="19.39" width="3.88" height="3.88" fill="#ccc2c2"/><rect x="3.88" y="15.52" width="3.88" height="3.87" fill="#ccc2c2"/><rect x="3.88" y="11.64" width="3.88" height="3.88" fill="#ccc2c2"/><rect y="116.36" width="3.88" height="3.88" fill="#ccc2c2"/><rect y="100.85" width="3.88" height="3.88" fill="#dd1212"/><rect y="85.33" width="3.88" height="3.88" fill="#dd1212"/><rect y="69.82" width="3.88" height="3.88" fill="#ccc2c2"/><rect y="54.3" width="3.88" height="3.88" fill="#ccc2c2"/><rect y="38.79" width="3.88" height="3.88" fill="#dd1212"/><rect y="23.27" width="3.88" height="3.88" fill="#dd1212"/><rect y="7.76" width="3.88" height="3.88" fill="#ccc2c2"/></svg>