<svg id="b160f674-b913-4951-90ee-20bea2f20ddd" data-name="Layer 1" xmlns="http://www.w3.org/2000/svg" viewBox="0 0 128 128"><rect x="104.73" y="104.73" width="3.88" height="3.88" fill="#dd1212"/><rect x="104.73" y="100.85" width="3.88" height="3.88" fill="#893434"/><rect x="104.73" y="96.97" width="3.88" height="3.88" fill="#dd1212"/><rect x="104.73" y="93.09" width="3.88" height="3.88" fill="#dd1212"/><rect x="100.85" y="108.61" width="3.88" height="3.87" fill="#dd1212"/><rect x="100.85" y="104.73" width="3.88" height="3.88" fill="#893434"/><rect x="100.85" y="100.85" width="3.88" height="3.88" fill="#dd1212"/><rect x="100.85" y="96.97" width="3.88" height="3.88" fill="#dd1212"/><rect x="100.85" y="93.09" width="3.88" height="3.88" fill="#dd1212"/><rect x="100.85" y="89.21" width="3.88" height="3.88" fill="#dd1212"/><rect x="96.97" y="108.61" width="3.88" height="3.87" fill="#893434"/><rect x="96.97" y="104.73" width="3.88" height="3.88" fill="#dd1212"/><rect x="96.97" y="100.85" width="3.88" height="3.88" fill="#dd1212"/><rect x="96.97" y="96.97" width="3.88" height="3.88" fill="#dd1212"/><rect x="96.97" y="93.09" width="3.88" height="3.88" fill="#e88e8e"/><rect x="96.97" y="89.21" width="3.88" height="3.88" fill="#dd1212"/><rect x="93.09" y="108.61" width="3.88" height="3.87" fill="#dd1212"/><rect x="93.09" y="104.73" width="3.88" height="3.88" fill="#dd1212"/><rect x="93.09" y="100.85" width="3.88" height="3.88" fill="#dd1212"/><rect x="93.09" y="96.97" width="3.88" height="3.88" fill="#e88e8e"/><rect x="93.09" y="93.09" width="3.88" height="3.88" fill="#fff"/><rect x="93.09" y="89.21" width="3.88" height="3.88" fill="#dd1212"/><rect x="89.21" y="108.61" width="3.88" height="3.87" fill="#dd1212"/><rect x="89.21" y="104.73" width="3.88" height="3.88" fill="#dd1212"/><rect x="89.21" y="100.85" width="3.88" height="3.88" fill="#e88e8e"/><rect x="89.21" y="96.97" width="3.88" height="3.88" fill="#fff"/><rect x="89.21" y="93.09" width="3.88" height="3.88" fill="#dd1212"/><rect x="89.21" y="89.21" width="3.88" height="3.88" fill="#dd1212"/><rect x="89.21" y="85.33" width="3.88" height="3.88" fill="#686363"/><rect x="85.33" y="104.73" width="3.88" height="3.88" fill="#dd1212"/><rect x="85.33" y="100.85" width="3.88" height="3.88" fill="#dd1212"/><rect x="85.33" y="96.97" width="3.88" height="3.88" fill="#dd1212"/><rect x="85.33" y="93.09" width="3.88" height="3.88" fill="#dd1212"/><rect x="85.33" y="89.21" width="3.88" height="3.88" fill="#ccc2c2"/><rect x="85.33" y="85.33" width="3.88" height="3.88" fill="#686363"/><rect x="85.33" y="81.45" width="3.88" height="3.88" fill="#686363"/><rect x="81.45" y="85.33" width="3.88" height="3.88" fill="#ccc2c2"/><rect x="81.45" y="81.45" width="3.88" height="3.88" fill="#686363"/><rect x="81.45" y="77.58" width="3.88" height="3.87" fill="#686363"/><rect x="77.58" y="89.21" width="3.87" height="3.88" fill="#fff"/><rect x="77.58" y="85.33" width="3.87" height="3.88" fill="#fff"/><rect x="77.58" y="81.45" width="3.87" height="3.88" fill="#ccc2c2"/><rect x="77.58" y="77.58" width="3.87" height="3.87" fill="#686363"/><rect x="77.58" y="73.7" width="3.87" height="3.88" fill="#686363"/><rect x="77.58" y="69.82" width="3.87" height="3.88"/><rect x="77.58" y="65.94" width="3.87" height="3.88"/><rect x="77.58" y="62.06" width="3.87" height="3.88"/><rect x="73.7" y="93.09" width="3.88" height="3.88" fill="#fff"/><rect x="73.7" y="89.21" width="3.88" height="3.88" fill="#fff"/><rect x="73.7" y="85.33" width="3.88" height="3.88" fill="#fff"/><rect x="73.7" y="81.45" width="3.88" height="3.88"/><rect x="73.7" y="77.58" width="3.88" height="3.87" fill="#686363"/><rect x="73.7" y="73.7" width="3.88" height="3.88" fill="#686363"/><rect x="73.7" y="69.82" width="3.88" height="3.88"/><rect x="73.7" y="65.94" width="3.88" height="3.88"/><rect x="73.7" y="62.06" width="3.88" height="3.88"/><rect x="73.7" y="58.18" width="3.88" height="3.88"/><rect x="69.82" y="96.97" width="3.88" height="3.88" fill="#fff"/><rect x="69.82" y="93.09" width="3.88" height="3.88" fill="#fff"/><rect x="69.82" y="89.21" width="3.88" height="3.88" fill="#893434"/><rect x="69.82" y="85.33" width="3.88" height="3.88"/><rect x="69.82" y="81.45" width="3.88" height="3.88"/><rect x="69.82" y="77.58" width="3.88" height="3.87"/><rect x="69.82" y="73.7" width="3.88" height="3.88"/><rect x="69.82" y="69.82" width="3.88" height="3.88"/><rect x="69.82" y="65.94" width="3.88" height="3.88"/><rect x="69.82" y="62.06" width="3.88" height="3.88" fill="#3a3737"/><rect x="69.82" y="58.18" width="3.88" height="3.88"/><rect x="69.82" y="54.3" width="3.88" height="3.88"/><rect x="69.82" y="31.03" width="3.88" height="3.88" fill="#dd1212"/><rect x="69.82" y="27.15" width="3.88" height="3.88" fill="#893434"/><rect x="69.82" y="23.27" width="3.88" height="3.88" fill="#dd1212"/><rect x="69.82" y="19.39" width="3.88" height="3.88" fill="#dd1212"/><rect x="65.94" y="100.85" width="3.88" height="3.88" fill="#fff"/><rect x="65.94" y="96.97" width="3.88" height="3.88" fill="#fff"/><rect x="65.94" y="93.09" width="3.88" height="3.88" fill="#893434"/><rect x="65.94" y="89.21" width="3.88" height="3.88" fill="#893434"/><rect x="65.94" y="85.33" width="3.88" height="3.88"/><rect x="65.94" y="81.45" width="3.88" height="3.88"/><rect x="65.94" y="77.58" width="3.88" height="3.87"/><rect x="65.94" y="73.7" width="3.88" height="3.88"/><rect x="65.94" y="69.82" width="3.88" height="3.88"/><rect x="65.94" y="65.94" width="3.88" height="3.88"/><rect x="65.94" y="62.06" width="3.88" height="3.88"/><rect x="65.94" y="58.18" width="3.88" height="3.88"/><rect x="65.94" y="54.3" width="3.88" height="3.88" fill="#3a3737"/><rect x="65.94" y="34.91" width="3.88" height="3.88" fill="#dd1212"/><rect x="65.94" y="31.03" width="3.88" height="3.88" fill="#893434"/><rect x="65.94" y="27.15" width="3.88" height="3.88" fill="#dd1212"/><rect x="65.94" y="23.27" width="3.88" height="3.88" fill="#dd1212"/><rect x="65.94" y="19.39" width="3.88" height="3.88" fill="#dd1212"/><rect x="65.94" y="15.52" width="3.88" height="3.87" fill="#dd1212"/><rect x="62.06" y="100.85" width="3.88" height="3.88" fill="#fff"/><rect x="62.06" y="96.97" width="3.88" height="3.88" fill="#fff"/><rect x="62.06" y="93.09" width="3.88" height="3.88" fill="#893434"/><rect x="62.06" y="89.21" width="3.88" height="3.88" fill="#893434"/><rect x="62.06" y="85.33" width="3.88" height="3.88"/><rect x="62.06" y="81.45" width="3.88" height="3.88"/><rect x="62.06" y="77.58" width="3.88" height="3.87"/><rect x="62.06" y="73.7" width="3.88" height="3.88"/><rect x="62.06" y="69.82" width="3.88" height="3.88"/><rect x="62.06" y="65.94" width="3.88" height="3.88"/><rect x="62.06" y="62.06" width="3.88" height="3.88" fill="#3a3737"/><rect x="62.06" y="58.18" width="3.88" height="3.88"/><rect x="62.06" y="54.3" width="3.88" height="3.88" fill="#686363"/><rect x="62.06" y="50.42" width="3.88" height="3.88" fill="#686363"/><rect x="62.06" y="46.55" width="3.88" height="3.87" fill="#686363"/><rect x="62.06" y="42.67" width="3.88" height="3.88" fill="#686363"/><rect x="62.06" y="38.79" width="3.88" height="3.88" fill="#686363"/><rect x="62.06" y="34.91" width="3.88" height="3.88" fill="#893434"/><rect x="62.06" y="31.03" width="3.88" height="3.88" fill="#dd1212"/><rect x="62.06" y="27.15" width="3.88" height="3.88" fill="#dd1212"/><rect x="62.06" y="23.27" width="3.88" height="3.88" fill="#dd1212"/><rect x="62.06" y="19.39" width="3.88" height="3.88" fill="#e88e8e"/><rect x="62.06" y="15.52" width="3.88" height="3.87" fill="#dd1212"/><rect x="58.18" y="100.85" width="3.88" height="3.88" fill="#fff"/><rect x="58.18" y="96.97" width="3.88" height="3.88" fill="#fff"/><rect x="58.18" y="93.09" width="3.88" height="3.88" fill="#893434"/><rect x="58.18" y="89.21" width="3.88" height="3.88" fill="#dd1212"/><rect x="58.18" y="85.33" width="3.88" height="3.88"/><rect x="58.18" y="81.45" width="3.88" height="3.88"/><rect x="58.18" y="77.58" width="3.88" height="3.87"/><rect x="58.18" y="73.7" width="3.88" height="3.88"/><rect x="58.18" y="69.82" width="3.88" height="3.88" fill="#3a3737"/><rect x="58.18" y="65.94" width="3.88" height="3.88"/><rect x="58.18" y="62.06" width="3.88" height="3.88"/><rect x="58.18" y="58.18" width="3.88" height="3.88" fill="#3a3737"/><rect x="58.18" y="54.3" width="3.88" height="3.88" fill="#ccc2c2"/><rect x="58.18" y="50.42" width="3.88" height="3.88" fill="#ccc2c2"/><rect x="58.18" y="46.55" width="3.88" height="3.87" fill="#ccc2c2"/><rect x="58.18" y="42.67" width="3.88" height="3.88" fill="#ccc2c2"/><rect x="58.18" y="38.79" width="3.88" height="3.88" fill="#ccc2c2"/><rect x="58.18" y="34.91" width="3.88" height="3.88" fill="#dd1212"/><rect x="58.18" y="31.03" width="3.88" height="3.88" fill="#dd1212"/><rect x="58.18" y="27.15" width="3.88" height="3.88" fill="#dd1212"/><rect x="58.18" y="23.27" width="3.88" height="3.88" fill="#e88e8e"/><rect x="58.18" y="19.39" width="3.88" height="3.88" fill="#fff"/><rect x="58.18" y="15.52" width="3.88" height="3.87" fill="#dd1212"/><rect x="54.3" y="100.85" width="3.88" height="3.88" fill="#fff"/><rect x="54.3" y="96.97" width="3.88" height="3.88" fill="#fff"/><rect x="54.3" y="93.09" width="3.88" height="3.88" fill="#893434"/><rect x="54.3" y="89.21" width="3.88" height="3.88" fill="#dd1212"/><rect x="54.3" y="85.33" width="3.88" height="3.88"/><rect x="54.3" y="81.45" width="3.88" height="3.88"/><rect x="54.3" y="77.58" width="3.88" height="3.87"/><rect x="54.3" y="73.7" width="3.88" height="3.88"/><rect x="54.3" y="69.82" width="3.88" height="3.88"/><rect x="54.3" y="65.94" width="3.88" height="3.88" fill="#3a3737"/><rect x="54.3" y="62.06" width="3.88" height="3.88" fill="#3a3737"/><rect x="54.3" y="58.18" width="3.88" height="3.88" fill="#fff"/><rect x="54.3" y="54.3" width="3.88" height="3.88" fill="#3a3737"/><rect x="54.3" y="34.91" width="3.88" height="3.88" fill="#dd1212"/><rect x="54.3" y="31.03" width="3.88" height="3.88" fill="#dd1212"/><rect x="54.3" y="27.15" width="3.88" height="3.88" fill="#e88e8e"/><rect x="54.3" y="23.27" width="3.88" height="3.88" fill="#fff"/><rect x="54.3" y="19.39" width="3.88" height="3.88" fill="#dd1212"/><rect x="54.3" y="15.52" width="3.88" height="3.87" fill="#dd1212"/><rect x="50.42" y="100.85" width="3.88" height="3.88" fill="#fff"/><rect x="50.42" y="96.97" width="3.88" height="3.88" fill="#fff"/><rect x="50.42" y="93.09" width="3.88" height="3.88" fill="#fff"/><rect x="50.42" y="89.21" width="3.88" height="3.88" fill="#dd1212"/><rect x="50.42" y="85.33" width="3.88" height="3.88" fill="#3a3737"/><rect x="50.42" y="81.45" width="3.88" height="3.88"/><rect x="50.42" y="77.58" width="3.88" height="3.87"/><rect x="50.42" y="73.7" width="3.88" height="3.88"/><rect x="50.42" y="69.82" width="3.88" height="3.88" fill="#3a3737"/><rect x="50.42" y="65.94" width="3.88" height="3.88" fill="#3a3737"/><rect x="50.42" y="62.06" width="3.88" height="3.88" fill="#fff"/><rect x="50.42" y="58.18" width="3.88" height="3.88" fill="#3a3737"/><rect x="50.42" y="54.3" width="3.88" height="3.88" fill="#3a3737"/><rect x="50.42" y="38.79" width="3.88" height="3.88" fill="#fff"/><rect x="50.42" y="34.91" width="3.88" height="3.88" fill="#fff"/><rect x="50.42" y="31.03" width="3.88" height="3.88" fill="#dd1212"/><rect x="50.42" y="27.15" width="3.88" height="3.88" fill="#dd1212"/><rect x="50.42" y="23.27" width="3.88" height="3.88" fill="#dd1212"/><rect x="50.42" y="19.39" width="3.88" height="3.88" fill="#dd1212"/><rect x="46.55" y="100.85" width="3.87" height="3.88" fill="#fff"/><rect x="46.55" y="96.97" width="3.87" height="3.88" fill="#fff"/><rect x="46.55" y="93.09" width="3.87" height="3.88" fill="#fff"/><rect x="46.55" y="89.21" width="3.87" height="3.88" fill="#fff"/><rect x="46.55" y="85.33" width="3.87" height="3.88" fill="#fff"/><rect x="46.55" y="81.45" width="3.87" height="3.88" fill="#3a3737"/><rect x="46.55" y="77.58" width="3.87" height="3.87" fill="#686363"/><rect x="46.55" y="73.7" width="3.87" height="3.88" fill="#3a3737"/><rect x="46.55" y="69.82" width="3.87" height="3.88" fill="#3a3737"/><rect x="46.55" y="65.94" width="3.87" height="3.88" fill="#3a3737"/><rect x="46.55" y="62.06" width="3.87" height="3.88" fill="#3a3737"/><rect x="46.55" y="58.18" width="3.87" height="3.88" fill="#3a3737"/><rect x="46.55" y="34.91" width="3.87" height="3.88" fill="#fff"/><rect x="46.55" y="31.03" width="3.87" height="3.88" fill="#fff"/><rect x="46.55" y="27.15" width="3.87" height="3.88" fill="#fff"/><rect x="46.55" y="23.27" width="3.87" height="3.88" fill="#fff"/><rect x="42.67" y="96.97" width="3.88" height="3.88" fill="#fff"/><rect x="42.67" y="93.09" width="3.88" height="3.88" fill="#fff"/><rect x="42.67" y="89.21" width="3.88" height="3.88" fill="#fff"/><rect x="42.67" y="85.33" width="3.88" height="3.88" fill="#fff"/><rect x="42.67" y="81.45" width="3.88" height="3.88" fill="#686363"/><rect x="42.67" y="77.58" width="3.88" height="3.87" fill="#686363"/><rect x="42.67" y="73.7" width="3.88" height="3.88" fill="#ccc2c2"/><rect x="42.67" y="69.82" width="3.88" height="3.88" fill="#3a3737"/><rect x="42.67" y="65.94" width="3.88" height="3.88" fill="#3a3737"/><rect x="42.67" y="62.06" width="3.88" height="3.88" fill="#3a3737"/><rect x="38.79" y="93.09" width="3.88" height="3.88" fill="#fff"/><rect x="38.79" y="89.21" width="3.88" height="3.88" fill="#fff"/><rect x="38.79" y="85.33" width="3.88" height="3.88" fill="#686363"/><rect x="38.79" y="81.45" width="3.88" height="3.88" fill="#686363"/><rect x="38.79" y="77.58" width="3.88" height="3.87" fill="#ccc2c2"/><rect x="38.79" y="73.7" width="3.88" height="3.88" fill="#fff"/><rect x="38.79" y="69.82" width="3.88" height="3.88" fill="#fff"/><rect x="38.79" y="65.94" width="3.88" height="3.88" fill="#fff"/><rect x="34.91" y="104.73" width="3.88" height="3.88" fill="#dd1212"/><rect x="34.91" y="100.85" width="3.88" height="3.88" fill="#893434"/><rect x="34.91" y="96.97" width="3.88" height="3.88" fill="#dd1212"/><rect x="34.91" y="93.09" width="3.88" height="3.88" fill="#dd1212"/><rect x="34.91" y="89.21" width="3.88" height="3.88" fill="#686363"/><rect x="34.91" y="85.33" width="3.88" height="3.88" fill="#686363"/><rect x="34.91" y="81.45" width="3.88" height="3.88" fill="#ccc2c2"/><rect x="34.91" y="77.58" width="3.88" height="3.87" fill="#fff"/><rect x="34.91" y="73.7" width="3.88" height="3.88" fill="#fff"/><rect x="34.91" y="69.82" width="3.88" height="3.88" fill="#fff"/><rect x="31.03" y="108.61" width="3.88" height="3.87" fill="#dd1212"/><rect x="31.03" y="104.73" width="3.88" height="3.88" fill="#893434"/><rect x="31.03" y="100.85" width="3.88" height="3.88" fill="#dd1212"/><rect x="31.03" y="96.97" width="3.88" height="3.88" fill="#dd1212"/><rect x="31.03" y="93.09" width="3.88" height="3.88" fill="#dd1212"/><rect x="31.03" y="89.21" width="3.88" height="3.88" fill="#dd1212"/><rect x="31.03" y="85.33" width="3.88" height="3.88" fill="#ccc2c2"/><rect x="27.15" y="108.61" width="3.88" height="3.87" fill="#893434"/><rect x="27.15" y="104.73" width="3.88" height="3.88" fill="#dd1212"/><rect x="27.15" y="100.85" width="3.88" height="3.88" fill="#dd1212"/><rect x="27.15" y="96.97" width="3.88" height="3.88" fill="#dd1212"/><rect x="27.15" y="93.09" width="3.88" height="3.88" fill="#e88e8e"/><rect x="27.15" y="89.21" width="3.88" height="3.88" fill="#dd1212"/><rect x="23.27" y="108.61" width="3.88" height="3.87" fill="#dd1212"/><rect x="23.27" y="104.73" width="3.88" height="3.88" fill="#dd1212"/><rect x="23.27" y="100.85" width="3.88" height="3.88" fill="#dd1212"/><rect x="23.27" y="96.97" width="3.88" height="3.88" fill="#e88e8e"/><rect x="23.27" y="93.09" width="3.88" height="3.88" fill="#fff"/><rect x="23.27" y="89.21" width="3.88" height="3.88" fill="#dd1212"/><rect x="19.39" y="108.61" width="3.88" height="3.87" fill="#dd1212"/><rect x="19.39" y="104.73" width="3.88" height="3.88" fill="#dd1212"/><rect x="19.39" y="100.85" width="3.88" height="3.88" fill="#e88e8e"/><rect x="19.39" y="96.97" width="3.88" height="3.88" fill="#fff"/><rect x="19.39" y="93.09" width="3.88" height="3.88" fill="#dd1212"/><rect x="19.39" y="89.21" width="3.88" height="3.88" fill="#dd1212"/><rect x="15.52" y="104.73" width="3.87" height="3.88" fill="#dd1212"/><rect x="15.52" y="100.85" width="3.87" height="3.88" fill="#dd1212"/><rect x="15.52" y="96.97" width="3.87" height="3.88" fill="#dd1212"/><rect x="15.52" y="93.09" width="3.87" height="3.88" fill="#dd1212"/></svg>