<svg id="ba16d0bd-aeb6-4249-b0ea-b66c56d2c99d" data-name="Layer 1" xmlns="http://www.w3.org/2000/svg" viewBox="0 0 128 128"><rect x="120.24" y="23.27" width="3.88" height="3.88" fill="#e88e8e"/><rect x="116.36" y="27.15" width="3.88" height="3.88" fill="#e88e8e"/><rect x="116.36" y="23.27" width="3.88" height="3.88" fill="#e88e8e"/><rect x="112.48" y="27.15" width="3.88" height="3.88" fill="#f9b9b9"/><rect x="112.48" y="23.27" width="3.88" height="3.88" fill="#e88e8e"/><rect x="108.61" y="27.15" width="3.87" height="3.88" fill="#f9b9b9"/><rect x="108.61" y="23.27" width="3.87" height="3.88" fill="#e88e8e"/><rect x="104.73" y="27.15" width="3.88" height="3.88" fill="#f9b9b9"/><rect x="104.73" y="23.27" width="3.88" height="3.88" fill="#e88e8e"/><rect x="100.85" y="31.03" width="3.88" height="3.88" fill="#e88e8e"/><rect x="100.85" y="27.15" width="3.88" height="3.88" fill="#f9b9b9"/><rect x="100.85" y="23.27" width="3.88" height="3.88" fill="#e88e8e"/><rect x="96.97" y="31.03" width="3.88" height="3.88" fill="#e88e8e"/><rect x="96.97" y="27.15" width="3.88" height="3.88" fill="#f9b9b9"/><rect x="96.97" y="23.27" width="3.88" height="3.88" fill="#e88e8e"/><rect x="93.09" y="31.03" width="3.88" height="3.88" fill="#e88e8e"/><rect x="93.09" y="27.15" width="3.88" height="3.88" fill="#f9b9b9"/><rect x="93.09" y="23.27" width="3.88" height="3.88" fill="#e88e8e"/><rect x="89.21" y="85.33" width="3.88" height="3.88" fill="#893434"/><rect x="89.21" y="81.45" width="3.88" height="3.88" fill="#893434"/><rect x="89.21" y="77.58" width="3.88" height="3.87" fill="#893434"/><rect x="89.21" y="73.7" width="3.88" height="3.88" fill="#893434"/><rect x="89.21" y="69.82" width="3.88" height="3.88" fill="#893434"/><rect x="89.21" y="65.94" width="3.88" height="3.88" fill="#893434"/><rect x="89.21" y="62.06" width="3.88" height="3.88" fill="#893434"/><rect x="89.21" y="31.03" width="3.88" height="3.88" fill="#e88e8e"/><rect x="89.21" y="27.15" width="3.88" height="3.88" fill="#f9b9b9"/><rect x="89.21" y="23.27" width="3.88" height="3.88" fill="#e88e8e"/><rect x="85.33" y="89.21" width="3.88" height="3.88" fill="#893434"/><rect x="85.33" y="85.33" width="3.88" height="3.88" fill="#dd1212"/><rect x="85.33" y="81.45" width="3.88" height="3.88" fill="#dd1212"/><rect x="85.33" y="77.58" width="3.88" height="3.87" fill="#dd1212"/><rect x="85.33" y="73.7" width="3.88" height="3.88" fill="#dd1212"/><rect x="85.33" y="69.82" width="3.88" height="3.88" fill="#f9b9b9"/><rect x="85.33" y="65.94" width="3.88" height="3.88" fill="#f9b9b9"/><rect x="85.33" y="62.06" width="3.88" height="3.88" fill="#f9b9b9"/><rect x="85.33" y="58.18" width="3.88" height="3.88" fill="#893434"/><rect x="85.33" y="31.03" width="3.88" height="3.88" fill="#e88e8e"/><rect x="85.33" y="27.15" width="3.88" height="3.88" fill="#fff"/><rect x="85.33" y="23.27" width="3.88" height="3.88" fill="#e88e8e"/><rect x="81.45" y="93.09" width="3.88" height="3.88" fill="#893434"/><rect x="81.45" y="89.21" width="3.88" height="3.88" fill="#dd1212"/><rect x="81.45" y="85.33" width="3.88" height="3.88" fill="#dd1212"/><rect x="81.45" y="81.45" width="3.88" height="3.88" fill="#dd1212"/><rect x="81.45" y="77.58" width="3.88" height="3.87" fill="#dd1212"/><rect x="81.45" y="73.7" width="3.88" height="3.88" fill="#dd1212"/><rect x="81.45" y="69.82" width="3.88" height="3.88" fill="#f9b9b9"/><rect x="81.45" y="65.94" width="3.88" height="3.88" fill="#f9b9b9"/><rect x="81.45" y="62.06" width="3.88" height="3.88" fill="#f9b9b9"/><rect x="81.45" y="58.18" width="3.88" height="3.88" fill="#f9b9b9"/><rect x="81.45" y="54.3" width="3.88" height="3.88" fill="#e88e8e"/><rect x="81.45" y="34.91" width="3.88" height="3.88" fill="#893434"/><rect x="81.45" y="31.03" width="3.88" height="3.88" fill="#f9b9b9"/><rect x="81.45" y="27.15" width="3.88" height="3.88" fill="#fff"/><rect x="81.45" y="23.27" width="3.88" height="3.88" fill="#e88e8e"/><rect x="77.58" y="96.97" width="3.87" height="3.88" fill="#893434"/><rect x="77.58" y="93.09" width="3.87" height="3.88" fill="#dd1212"/><rect x="77.58" y="85.33" width="3.87" height="3.88" fill="#fff"/><rect x="77.58" y="81.45" width="3.87" height="3.88" fill="#dd1212"/><rect x="77.58" y="77.58" width="3.87" height="3.87" fill="#dd1212"/><rect x="77.58" y="73.7" width="3.87" height="3.88" fill="#dd1212"/><rect x="77.58" y="69.82" width="3.87" height="3.88" fill="#f9b9b9"/><rect x="77.58" y="65.94" width="3.87" height="3.88" fill="#f9b9b9"/><rect x="77.58" y="62.06" width="3.87" height="3.88" fill="#f9b9b9"/><rect x="77.58" y="58.18" width="3.87" height="3.88" fill="#f9b9b9"/><rect x="77.58" y="54.3" width="3.87" height="3.88" fill="#f9b9b9"/><rect x="77.58" y="50.42" width="3.87" height="3.88" fill="#e88e8e"/><rect x="77.58" y="34.91" width="3.87" height="3.88" fill="#893434"/><rect x="77.58" y="31.03" width="3.87" height="3.88" fill="#f9b9b9"/><rect x="77.58" y="27.15" width="3.87" height="3.88" fill="#fff"/><rect x="77.58" y="23.27" width="3.87" height="3.88" fill="#e88e8e"/><rect x="73.7" y="100.85" width="3.88" height="3.88" fill="#893434"/><rect x="73.7" y="96.97" width="3.88" height="3.88" fill="#dd1212"/><rect x="73.7" y="89.21" width="3.88" height="3.88" fill="#893434"/><rect x="73.7" y="85.33" width="3.88" height="3.88" fill="#dd1212"/><rect x="73.7" y="81.45" width="3.88" height="3.88" fill="#dd1212"/><rect x="73.7" y="77.58" width="3.88" height="3.87" fill="#dd1212"/><rect x="73.7" y="73.7" width="3.88" height="3.88" fill="#dd1212"/><rect x="73.7" y="69.82" width="3.88" height="3.88" fill="#f9b9b9"/><rect x="73.7" y="65.94" width="3.88" height="3.88" fill="#f9b9b9"/><rect x="73.7" y="62.06" width="3.88" height="3.88" fill="#f9b9b9"/><rect x="73.7" y="58.18" width="3.88" height="3.88" fill="#f9b9b9"/><rect x="73.7" y="54.3" width="3.88" height="3.88" fill="#f9b9b9"/><rect x="73.7" y="50.42" width="3.88" height="3.88" fill="#f9b9b9"/><rect x="73.7" y="46.55" width="3.88" height="3.87" fill="#893434"/><rect x="73.7" y="38.79" width="3.88" height="3.88" fill="#893434"/><rect x="73.7" y="34.91" width="3.88" height="3.88" fill="#f9b9b9"/><rect x="73.7" y="31.03" width="3.88" height="3.88" fill="#f9b9b9"/><rect x="73.7" y="27.15" width="3.88" height="3.88" fill="#fff"/><rect x="73.7" y="23.27" width="3.88" height="3.88" fill="#e88e8e"/><rect x="69.82" y="104.73" width="3.88" height="3.88" fill="#893434"/><rect x="69.82" y="100.85" width="3.88" height="3.88" fill="#893434"/><rect x="69.82" y="93.09" width="3.88" height="3.88" fill="#893434"/><rect x="69.82" y="89.21" width="3.88" height="3.88" fill="#893434"/><rect x="69.82" y="85.33" width="3.88" height="3.88" fill="#dd1212"/><rect x="69.82" y="81.45" width="3.88" height="3.88" fill="#dd1212"/><rect x="69.82" y="77.58" width="3.88" height="3.87" fill="#dd1212"/><rect x="69.82" y="73.7" width="3.88" height="3.88" fill="#dd1212"/><rect x="69.82" y="69.82" width="3.88" height="3.88" fill="#f9b9b9"/><rect x="69.82" y="65.94" width="3.88" height="3.88" fill="#f9b9b9"/><rect x="69.82" y="62.06" width="3.88" height="3.88" fill="#f9b9b9"/><rect x="69.82" y="58.18" width="3.88" height="3.88" fill="#f9b9b9"/><rect x="69.82" y="54.3" width="3.88" height="3.88" fill="#f9b9b9"/><rect x="69.82" y="50.42" width="3.88" height="3.88" fill="#f9b9b9"/><rect x="69.82" y="46.55" width="3.88" height="3.87" fill="#f9b9b9"/><rect x="69.82" y="42.67" width="3.88" height="3.88" fill="#893434"/><rect x="69.82" y="38.79" width="3.88" height="3.88" fill="#f9b9b9"/><rect x="69.82" y="34.91" width="3.88" height="3.88" fill="#f9b9b9"/><rect x="69.82" y="31.03" width="3.88" height="3.88" fill="#f9b9b9"/><rect x="69.82" y="27.15" width="3.88" height="3.88" fill="#fff"/><rect x="69.82" y="23.27" width="3.88" height="3.88" fill="#e88e8e"/><rect x="65.94" y="104.73" width="3.88" height="3.88" fill="#893434"/><rect x="65.94" y="100.85" width="3.88" height="3.88" fill="#893434"/><rect x="65.94" y="96.97" width="3.88" height="3.88" fill="#893434"/><rect x="65.94" y="93.09" width="3.88" height="3.88" fill="#893434"/><rect x="65.94" y="89.21" width="3.88" height="3.88" fill="#dd1212"/><rect x="65.94" y="85.33" width="3.88" height="3.88" fill="#dd1212"/><rect x="65.94" y="81.45" width="3.88" height="3.88" fill="#dd1212"/><rect x="65.94" y="77.58" width="3.88" height="3.87" fill="#dd1212"/><rect x="65.94" y="73.7" width="3.88" height="3.88" fill="#dd1212"/><rect x="65.94" y="69.82" width="3.88" height="3.88" fill="#f9b9b9"/><rect x="65.94" y="65.94" width="3.88" height="3.88" fill="#f9b9b9"/><rect x="65.94" y="62.06" width="3.88" height="3.88" fill="#fff"/><rect x="65.94" y="58.18" width="3.88" height="3.88" fill="#fff"/><rect x="65.94" y="54.3" width="3.88" height="3.88" fill="#f9b9b9"/><rect x="65.94" y="50.42" width="3.88" height="3.88" fill="#f9b9b9"/><rect x="65.94" y="46.55" width="3.88" height="3.87" fill="#f9b9b9"/><rect x="65.94" y="42.67" width="3.88" height="3.88" fill="#893434"/><rect x="65.94" y="38.79" width="3.88" height="3.88" fill="#f9b9b9"/><rect x="65.94" y="34.91" width="3.88" height="3.88" fill="#f9b9b9"/><rect x="65.94" y="31.03" width="3.88" height="3.88" fill="#f9b9b9"/><rect x="65.94" y="27.15" width="3.88" height="3.88" fill="#fff"/><rect x="65.94" y="23.27" width="3.88" height="3.88" fill="#e88e8e"/><rect x="62.06" y="108.61" width="3.88" height="3.87" fill="#893434"/><rect x="62.06" y="104.73" width="3.88" height="3.88" fill="#893434"/><rect x="62.06" y="100.85" width="3.88" height="3.88" fill="#893434"/><rect x="62.06" y="96.97" width="3.88" height="3.88" fill="#893434"/><rect x="62.06" y="93.09" width="3.88" height="3.88" fill="#dd1212"/><rect x="62.06" y="89.21" width="3.88" height="3.88" fill="#dd1212"/><rect x="62.06" y="85.33" width="3.88" height="3.88" fill="#dd1212"/><rect x="62.06" y="81.45" width="3.88" height="3.88" fill="#dd1212"/><rect x="62.06" y="77.58" width="3.88" height="3.87" fill="#dd1212"/><rect x="62.06" y="73.7" width="3.88" height="3.88" fill="#dd1212"/><rect x="62.06" y="69.82" width="3.88" height="3.88" fill="#f9b9b9"/><rect x="62.06" y="65.94" width="3.88" height="3.88" fill="#f9b9b9"/><rect x="62.06" y="62.06" width="3.88" height="3.88" fill="#f9b9b9"/><rect x="62.06" y="58.18" width="3.88" height="3.88" fill="#fff"/><rect x="62.06" y="54.3" width="3.88" height="3.88" fill="#fff"/><rect x="62.06" y="50.42" width="3.88" height="3.88" fill="#f9b9b9"/><rect x="62.06" y="46.55" width="3.88" height="3.87" fill="#f9b9b9"/><rect x="62.06" y="42.67" width="3.88" height="3.88" fill="#f9b9b9"/><rect x="62.06" y="38.79" width="3.88" height="3.88" fill="#f9b9b9"/><rect x="62.06" y="34.91" width="3.88" height="3.88" fill="#f9b9b9"/><rect x="62.06" y="31.03" width="3.88" height="3.88" fill="#f9b9b9"/><rect x="62.06" y="27.15" width="3.88" height="3.88" fill="#e88e8e"/><rect x="58.18" y="108.61" width="3.88" height="3.87" fill="#893434"/><rect x="58.18" y="104.73" width="3.88" height="3.88" fill="#893434"/><rect x="58.18" y="100.85" width="3.88" height="3.88" fill="#dd1212"/><rect x="58.18" y="96.97" width="3.88" height="3.88" fill="#dd1212"/><rect x="58.18" y="93.09" width="3.88" height="3.88" fill="#dd1212"/><rect x="58.18" y="89.21" width="3.88" height="3.88" fill="#dd1212"/><rect x="58.18" y="85.33" width="3.88" height="3.88" fill="#dd1212"/><rect x="58.18" y="81.45" width="3.88" height="3.88" fill="#dd1212"/><rect x="58.18" y="77.58" width="3.88" height="3.87" fill="#dd1212"/><rect x="58.18" y="73.7" width="3.88" height="3.88" fill="#dd1212"/><rect x="58.18" y="69.82" width="3.88" height="3.88" fill="#f9b9b9"/><rect x="58.18" y="65.94" width="3.88" height="3.88" fill="#f9b9b9"/><rect x="58.18" y="62.06" width="3.88" height="3.88" fill="#f9b9b9"/><rect x="58.18" y="58.18" width="3.88" height="3.88" fill="#f9b9b9"/><rect x="58.18" y="54.3" width="3.88" height="3.88" fill="#fff"/><rect x="58.18" y="50.42" width="3.88" height="3.88" fill="#f9b9b9"/><rect x="58.18" y="46.55" width="3.88" height="3.87" fill="#f9b9b9"/><rect x="58.18" y="42.67" width="3.88" height="3.88" fill="#f9b9b9"/><rect x="58.18" y="38.79" width="3.88" height="3.88" fill="#f9b9b9"/><rect x="58.18" y="34.91" width="3.88" height="3.88" fill="#f9b9b9"/><rect x="58.18" y="31.03" width="3.88" height="3.88" fill="#fff"/><rect x="58.18" y="27.15" width="3.88" height="3.88" fill="#e88e8e"/><rect x="54.3" y="108.61" width="3.88" height="3.87" fill="#893434"/><rect x="54.3" y="104.73" width="3.88" height="3.88" fill="#893434"/><rect x="54.3" y="100.85" width="3.88" height="3.88" fill="#dd1212"/><rect x="54.3" y="96.97" width="3.88" height="3.88" fill="#dd1212"/><rect x="54.3" y="93.09" width="3.88" height="3.88" fill="#dd1212"/><rect x="54.3" y="89.21" width="3.88" height="3.88" fill="#dd1212"/><rect x="54.3" y="85.33" width="3.88" height="3.88" fill="#dd1212"/><rect x="54.3" y="81.45" width="3.88" height="3.88" fill="#dd1212"/><rect x="54.3" y="77.58" width="3.88" height="3.87" fill="#dd1212"/><rect x="54.3" y="73.7" width="3.88" height="3.88" fill="#dd1212"/><rect x="54.3" y="69.82" width="3.88" height="3.88" fill="#f9b9b9"/><rect x="54.3" y="65.94" width="3.88" height="3.88" fill="#f9b9b9"/><rect x="54.3" y="62.06" width="3.88" height="3.88" fill="#f9b9b9"/><rect x="54.3" y="58.18" width="3.88" height="3.88" fill="#f9b9b9"/><rect x="54.3" y="54.3" width="3.88" height="3.88" fill="#f9b9b9"/><rect x="54.3" y="50.42" width="3.88" height="3.88" fill="#f9b9b9"/><rect x="54.3" y="46.55" width="3.88" height="3.87" fill="#f9b9b9"/><rect x="54.3" y="42.67" width="3.88" height="3.88" fill="#f9b9b9"/><rect x="54.3" y="38.79" width="3.88" height="3.88" fill="#f9b9b9"/><rect x="54.3" y="34.91" width="3.88" height="3.88" fill="#f9b9b9"/><rect x="54.3" y="31.03" width="3.88" height="3.88" fill="#fff"/><rect x="54.3" y="27.15" width="3.88" height="3.88" fill="#e88e8e"/><rect x="50.42" y="108.61" width="3.88" height="3.87" fill="#893434"/><rect x="50.42" y="104.73" width="3.88" height="3.88" fill="#893434"/><rect x="50.42" y="100.85" width="3.88" height="3.88" fill="#dd1212"/><rect x="50.42" y="96.97" width="3.88" height="3.88" fill="#dd1212"/><rect x="50.42" y="93.09" width="3.88" height="3.88" fill="#dd1212"/><rect x="50.42" y="89.21" width="3.88" height="3.88" fill="#dd1212"/><rect x="50.42" y="85.33" width="3.88" height="3.88" fill="#dd1212"/><rect x="50.42" y="81.45" width="3.88" height="3.88" fill="#dd1212"/><rect x="50.42" y="77.58" width="3.88" height="3.87" fill="#dd1212"/><rect x="50.42" y="73.7" width="3.88" height="3.88" fill="#dd1212"/><rect x="50.42" y="69.82" width="3.88" height="3.88" fill="#f9b9b9"/><rect x="50.42" y="65.94" width="3.88" height="3.88" fill="#f9b9b9"/><rect x="50.42" y="62.06" width="3.88" height="3.88" fill="#f9b9b9"/><rect x="50.42" y="58.18" width="3.88" height="3.88" fill="#f9b9b9"/><rect x="50.42" y="54.3" width="3.88" height="3.88" fill="#f9b9b9"/><rect x="50.42" y="50.42" width="3.88" height="3.88" fill="#f9b9b9"/><rect x="50.42" y="46.55" width="3.88" height="3.87" fill="#f9b9b9"/><rect x="50.42" y="42.67" width="3.88" height="3.88" fill="#f9b9b9"/><rect x="50.42" y="38.79" width="3.88" height="3.88" fill="#f9b9b9"/><rect x="50.42" y="34.91" width="3.88" height="3.88" fill="#fff"/><rect x="50.42" y="31.03" width="3.88" height="3.88" fill="#e88e8e"/><rect x="46.55" y="108.61" width="3.87" height="3.87" fill="#893434"/><rect x="46.55" y="104.73" width="3.87" height="3.88" fill="#893434"/><rect x="46.55" y="100.85" width="3.87" height="3.88" fill="#dd1212"/><rect x="46.55" y="96.97" width="3.87" height="3.88" fill="#dd1212"/><rect x="46.55" y="93.09" width="3.87" height="3.88" fill="#dd1212"/><rect x="46.55" y="89.21" width="3.87" height="3.88" fill="#dd1212"/><rect x="46.55" y="85.33" width="3.87" height="3.88" fill="#dd1212"/><rect x="46.55" y="81.45" width="3.87" height="3.88" fill="#dd1212"/><rect x="46.55" y="77.58" width="3.87" height="3.87" fill="#dd1212"/><rect x="46.55" y="73.7" width="3.87" height="3.88" fill="#dd1212"/><rect x="46.55" y="69.82" width="3.87" height="3.88" fill="#f9b9b9"/><rect x="46.55" y="65.94" width="3.87" height="3.88" fill="#f9b9b9"/><rect x="46.55" y="62.06" width="3.87" height="3.88" fill="#f9b9b9"/><rect x="46.55" y="58.18" width="3.87" height="3.88" fill="#f9b9b9"/><rect x="46.55" y="54.3" width="3.87" height="3.88" fill="#f9b9b9"/><rect x="46.55" y="50.42" width="3.87" height="3.88" fill="#f9b9b9"/><rect x="46.55" y="46.55" width="3.87" height="3.87" fill="#f9b9b9"/><rect x="46.55" y="42.67" width="3.87" height="3.88" fill="#f9b9b9"/><rect x="46.55" y="38.79" width="3.87" height="3.88" fill="#f9b9b9"/><rect x="46.55" y="34.91" width="3.87" height="3.88" fill="#fff"/><rect x="46.55" y="31.03" width="3.87" height="3.88" fill="#e88e8e"/><rect x="42.67" y="108.61" width="3.88" height="3.87" fill="#893434"/><rect x="42.67" y="104.73" width="3.88" height="3.88" fill="#893434"/><rect x="42.67" y="100.85" width="3.88" height="3.88" fill="#dd1212"/><rect x="42.67" y="96.97" width="3.88" height="3.88" fill="#dd1212"/><rect x="42.67" y="93.09" width="3.88" height="3.88" fill="#dd1212"/><rect x="42.67" y="89.21" width="3.88" height="3.88" fill="#dd1212"/><rect x="42.67" y="85.33" width="3.88" height="3.88" fill="#dd1212"/><rect x="42.67" y="81.45" width="3.88" height="3.88" fill="#dd1212"/><rect x="42.67" y="77.58" width="3.88" height="3.87" fill="#dd1212"/><rect x="42.67" y="73.7" width="3.88" height="3.88" fill="#dd1212"/><rect x="42.67" y="69.82" width="3.88" height="3.88" fill="#f9b9b9"/><rect x="42.67" y="65.94" width="3.88" height="3.88" fill="#f9b9b9"/><rect x="42.67" y="62.06" width="3.88" height="3.88" fill="#f9b9b9"/><rect x="42.67" y="58.18" width="3.88" height="3.88" fill="#f9b9b9"/><rect x="42.67" y="54.3" width="3.88" height="3.88" fill="#f9b9b9"/><rect x="42.67" y="50.42" width="3.88" height="3.88" fill="#f9b9b9"/><rect x="42.67" y="46.55" width="3.88" height="3.87" fill="#fff"/><rect x="42.67" y="42.67" width="3.88" height="3.88" fill="#f9b9b9"/><rect x="42.67" y="38.79" width="3.88" height="3.88" fill="#fff"/><rect x="42.67" y="34.91" width="3.88" height="3.88" fill="#fff"/><rect x="42.67" y="31.03" width="3.88" height="3.88" fill="#e88e8e"/><rect x="38.79" y="108.61" width="3.88" height="3.87" fill="#893434"/><rect x="38.79" y="104.73" width="3.88" height="3.88" fill="#893434"/><rect x="38.79" y="100.85" width="3.88" height="3.88" fill="#fff"/><rect x="38.79" y="96.97" width="3.88" height="3.88" fill="#dd1212"/><rect x="38.79" y="93.09" width="3.88" height="3.88" fill="#dd1212"/><rect x="38.79" y="89.21" width="3.88" height="3.88" fill="#dd1212"/><rect x="38.79" y="85.33" width="3.88" height="3.88" fill="#dd1212"/><rect x="38.79" y="81.45" width="3.88" height="3.88" fill="#dd1212"/><rect x="38.79" y="77.58" width="3.88" height="3.87" fill="#dd1212"/><rect x="38.79" y="73.7" width="3.88" height="3.88" fill="#dd1212"/><rect x="38.79" y="69.82" width="3.88" height="3.88" fill="#f9b9b9"/><rect x="38.79" y="65.94" width="3.88" height="3.88" fill="#f9b9b9"/><rect x="38.79" y="62.06" width="3.88" height="3.88" fill="#f9b9b9"/><rect x="38.79" y="58.18" width="3.88" height="3.88" fill="#f9b9b9"/><rect x="38.79" y="54.3" width="3.88" height="3.88" fill="#f9b9b9"/><rect x="38.79" y="50.42" width="3.88" height="3.88" fill="#fff"/><rect x="38.79" y="46.55" width="3.88" height="3.87" fill="#fff"/><rect x="38.79" y="42.67" width="3.88" height="3.88" fill="#f9b9b9"/><rect x="38.79" y="38.79" width="3.88" height="3.88" fill="#fff"/><rect x="38.79" y="34.91" width="3.88" height="3.88" fill="#e88e8e"/><rect x="34.91" y="108.61" width="3.88" height="3.87" fill="#893434"/><rect x="34.91" y="104.73" width="3.88" height="3.88" fill="#893434"/><rect x="34.91" y="100.85" width="3.88" height="3.88" fill="#893434"/><rect x="34.91" y="96.97" width="3.88" height="3.88" fill="#fff"/><rect x="34.91" y="93.09" width="3.88" height="3.88" fill="#dd1212"/><rect x="34.91" y="89.21" width="3.88" height="3.88" fill="#dd1212"/><rect x="34.91" y="85.33" width="3.88" height="3.88" fill="#dd1212"/><rect x="34.91" y="81.45" width="3.88" height="3.88" fill="#dd1212"/><rect x="34.91" y="77.58" width="3.88" height="3.87" fill="#dd1212"/><rect x="34.91" y="73.7" width="3.88" height="3.88" fill="#dd1212"/><rect x="34.91" y="69.82" width="3.88" height="3.88" fill="#f9b9b9"/><rect x="34.91" y="65.94" width="3.88" height="3.88" fill="#f9b9b9"/><rect x="34.91" y="62.06" width="3.88" height="3.88" fill="#f9b9b9"/><rect x="34.91" y="58.18" width="3.88" height="3.88" fill="#f9b9b9"/><rect x="34.91" y="54.3" width="3.88" height="3.88" fill="#fff"/><rect x="34.91" y="50.42" width="3.88" height="3.88" fill="#fff"/><rect x="34.91" y="46.55" width="3.88" height="3.87" fill="#fff"/><rect x="34.91" y="42.67" width="3.88" height="3.88" fill="#f9b9b9"/><rect x="34.91" y="38.79" width="3.88" height="3.88" fill="#fff"/><rect x="34.91" y="34.91" width="3.88" height="3.88" fill="#e88e8e"/><rect x="31.03" y="104.73" width="3.88" height="3.88" fill="#893434"/><rect x="31.03" y="100.85" width="3.88" height="3.88" fill="#dd1212"/><rect x="31.03" y="96.97" width="3.88" height="3.88" fill="#893434"/><rect x="31.03" y="93.09" width="3.88" height="3.88" fill="#893434"/><rect x="31.03" y="89.21" width="3.88" height="3.88" fill="#dd1212"/><rect x="31.03" y="85.33" width="3.88" height="3.88" fill="#dd1212"/><rect x="31.03" y="81.45" width="3.88" height="3.88" fill="#dd1212"/><rect x="31.03" y="77.58" width="3.88" height="3.87" fill="#dd1212"/><rect x="31.03" y="73.7" width="3.88" height="3.88" fill="#dd1212"/><rect x="31.03" y="69.82" width="3.88" height="3.88" fill="#f9b9b9"/><rect x="31.03" y="65.94" width="3.88" height="3.88" fill="#f9b9b9"/><rect x="31.03" y="62.06" width="3.88" height="3.88" fill="#fff"/><rect x="31.03" y="58.18" width="3.88" height="3.88" fill="#fff"/><rect x="31.03" y="54.3" width="3.88" height="3.88" fill="#fff"/><rect x="31.03" y="50.42" width="3.88" height="3.88" fill="#fff"/><rect x="31.03" y="46.55" width="3.88" height="3.87" fill="#f9b9b9"/><rect x="31.03" y="42.67" width="3.88" height="3.88" fill="#fff"/><rect x="31.03" y="38.79" width="3.88" height="3.88" fill="#e88e8e"/><rect x="27.15" y="104.73" width="3.88" height="3.88" fill="#893434"/><rect x="27.15" y="100.85" width="3.88" height="3.88" fill="#dd1212"/><rect x="27.15" y="96.97" width="3.88" height="3.88" fill="#dd1212"/><rect x="27.15" y="93.09" width="3.88" height="3.88" fill="#893434"/><rect x="27.15" y="89.21" width="3.88" height="3.88" fill="#fff"/><rect x="27.15" y="85.33" width="3.88" height="3.88" fill="#dd1212"/><rect x="27.15" y="81.45" width="3.88" height="3.88" fill="#dd1212"/><rect x="27.15" y="77.58" width="3.88" height="3.87" fill="#dd1212"/><rect x="27.15" y="73.7" width="3.88" height="3.88" fill="#dd1212"/><rect x="27.15" y="69.82" width="3.88" height="3.88" fill="#fff"/><rect x="27.15" y="65.94" width="3.88" height="3.88" fill="#fff"/><rect x="27.15" y="62.06" width="3.88" height="3.88" fill="#fff"/><rect x="27.15" y="58.18" width="3.88" height="3.88" fill="#fff"/><rect x="27.15" y="54.3" width="3.88" height="3.88" fill="#fff"/><rect x="27.15" y="50.42" width="3.88" height="3.88" fill="#f9b9b9"/><rect x="27.15" y="46.55" width="3.88" height="3.87" fill="#f9b9b9"/><rect x="27.15" y="42.67" width="3.88" height="3.88" fill="#fff"/><rect x="27.15" y="38.79" width="3.88" height="3.88" fill="#e88e8e"/><rect x="23.27" y="100.85" width="3.88" height="3.88" fill="#893434"/><rect x="23.27" y="96.97" width="3.88" height="3.88" fill="#fff"/><rect x="23.27" y="93.09" width="3.88" height="3.88" fill="#dd1212"/><rect x="23.27" y="89.21" width="3.88" height="3.88" fill="#dd1212"/><rect x="23.27" y="85.33" width="3.88" height="3.88" fill="#fff"/><rect x="23.27" y="81.45" width="3.88" height="3.88" fill="#fff"/><rect x="23.27" y="77.58" width="3.88" height="3.87" fill="#fff"/><rect x="23.27" y="73.7" width="3.88" height="3.88" fill="#fff"/><rect x="23.27" y="69.82" width="3.88" height="3.88" fill="#fff"/><rect x="23.27" y="65.94" width="3.88" height="3.88" fill="#fff"/><rect x="23.27" y="62.06" width="3.88" height="3.88" fill="#fff"/><rect x="23.27" y="58.18" width="3.88" height="3.88" fill="#f9b9b9"/><rect x="23.27" y="54.3" width="3.88" height="3.88" fill="#f9b9b9"/><rect x="23.27" y="50.42" width="3.88" height="3.88" fill="#f9b9b9"/><rect x="23.27" y="46.55" width="3.88" height="3.87" fill="#fff"/><rect x="23.27" y="42.67" width="3.88" height="3.88" fill="#e88e8e"/><rect x="19.39" y="96.97" width="3.88" height="3.88" fill="#893434"/><rect x="19.39" y="93.09" width="3.88" height="3.88" fill="#fff"/><rect x="19.39" y="89.21" width="3.88" height="3.88" fill="#dd1212"/><rect x="19.39" y="85.33" width="3.88" height="3.88" fill="#dd1212"/><rect x="19.39" y="81.45" width="3.88" height="3.88" fill="#fff"/><rect x="19.39" y="77.58" width="3.88" height="3.87" fill="#fff"/><rect x="19.39" y="73.7" width="3.88" height="3.88" fill="#fff"/><rect x="19.39" y="69.82" width="3.88" height="3.88" fill="#fff"/><rect x="19.39" y="65.94" width="3.88" height="3.88" fill="#fff"/><rect x="19.39" y="62.06" width="3.88" height="3.88" fill="#f9b9b9"/><rect x="19.39" y="58.18" width="3.88" height="3.88" fill="#f9b9b9"/><rect x="19.39" y="54.3" width="3.88" height="3.88" fill="#fff"/><rect x="19.39" y="50.42" width="3.88" height="3.88" fill="#fff"/><rect x="19.39" y="46.55" width="3.88" height="3.87" fill="#e88e8e"/><rect x="15.52" y="93.09" width="3.87" height="3.88" fill="#e88e8e"/><rect x="15.52" y="89.21" width="3.87" height="3.88" fill="#fff"/><rect x="15.52" y="85.33" width="3.87" height="3.88" fill="#dd1212"/><rect x="15.52" y="81.45" width="3.87" height="3.88" fill="#dd1212"/><rect x="15.52" y="77.58" width="3.87" height="3.87" fill="#dd1212"/><rect x="15.52" y="73.7" width="3.87" height="3.88" fill="#dd1212"/><rect x="15.52" y="69.82" width="3.87" height="3.88" fill="#f9b9b9"/><rect x="15.52" y="65.94" width="3.87" height="3.88" fill="#f9b9b9"/><rect x="15.52" y="62.06" width="3.87" height="3.88" fill="#f9b9b9"/><rect x="15.52" y="58.18" width="3.87" height="3.88" fill="#fff"/><rect x="15.52" y="54.3" width="3.87" height="3.88" fill="#e88e8e"/><rect x="15.52" y="50.42" width="3.87" height="3.88" fill="#e88e8e"/><rect x="11.64" y="89.21" width="3.88" height="3.88" fill="#e88e8e"/><rect x="11.64" y="85.33" width="3.88" height="3.88" fill="#fff"/><rect x="11.64" y="81.45" width="3.88" height="3.88" fill="#fff"/><rect x="11.64" y="77.58" width="3.88" height="3.87" fill="#fff"/><rect x="11.64" y="73.7" width="3.88" height="3.88" fill="#fff"/><rect x="11.64" y="69.82" width="3.88" height="3.88" fill="#fff"/><rect x="11.64" y="65.94" width="3.88" height="3.88" fill="#fff"/><rect x="11.64" y="62.06" width="3.88" height="3.88" fill="#fff"/><rect x="11.64" y="58.18" width="3.88" height="3.88" fill="#e88e8e"/><rect x="7.76" y="85.33" width="3.88" height="3.88" fill="#e88e8e"/><rect x="7.76" y="81.45" width="3.88" height="3.88" fill="#e88e8e"/><rect x="7.76" y="77.58" width="3.88" height="3.87" fill="#e88e8e"/><rect x="7.76" y="73.7" width="3.88" height="3.88" fill="#e88e8e"/><rect x="7.76" y="69.82" width="3.88" height="3.88" fill="#e88e8e"/><rect x="7.76" y="65.94" width="3.88" height="3.88" fill="#e88e8e"/><rect x="7.76" y="62.06" width="3.88" height="3.88" fill="#e88e8e"/></svg>